<svg width="1033" height="448" viewBox="0 0 1033 448" fill="none" xmlns="http://www.w3.org/2000/svg">
<path d="M1017.35 357.511C1012.1 377.354 994.426 393.176 966.355 404.634C938.313 416.08 900.176 423.045 854.584 425.332C763.418 429.906 642.79 415.762 514.34 381.774C385.889 347.786 274.052 300.42 197.078 251.355C158.584 226.818 128.883 201.904 110.171 178.087C91.4405 154.245 83.9025 131.751 89.1529 111.908C94.4034 92.0653 112.08 76.2427 140.151 64.7851C168.193 53.3394 206.329 46.3744 251.922 44.0869C343.088 39.5128 463.716 53.6567 592.166 87.645C720.617 121.633 832.454 169 909.428 218.064C947.922 242.601 977.623 267.515 996.335 291.332C1015.07 315.174 1022.6 337.668 1017.35 357.511Z" stroke="#30352E" stroke-width="3"/>
<mask id="path-2-inside-1_307_39835" fill="white">
<path fill-rule="evenodd" clip-rule="evenodd" d="M984.122 282.811C1024.72 264.707 1042.96 217.119 1024.85 176.52C1006.75 135.92 959.16 117.685 918.561 135.789C889.076 148.937 871.387 177.635 870.845 207.913L836.118 226.639L877.241 240.728C877.433 241.18 877.629 241.631 877.83 242.081C895.934 282.68 943.523 300.916 984.122 282.811Z"/>
</mask>
<path fill-rule="evenodd" clip-rule="evenodd" d="M984.122 282.811C1024.72 264.707 1042.96 217.119 1024.85 176.52C1006.75 135.92 959.16 117.685 918.561 135.789C889.076 148.937 871.387 177.635 870.845 207.913L836.118 226.639L877.241 240.728C877.433 241.18 877.629 241.631 877.83 242.081C895.934 282.68 943.523 300.916 984.122 282.811Z" fill="#00904F"/>
<path d="M870.845 207.913L872.744 211.433C874.016 210.748 874.819 209.429 874.844 207.984L870.845 207.913ZM836.118 226.639L834.22 223.119C832.821 223.873 832.001 225.384 832.132 226.968C832.263 228.552 833.318 229.908 834.822 230.424L836.118 226.639ZM877.241 240.728L880.923 239.165C880.48 238.12 879.612 237.312 878.538 236.944L877.241 240.728ZM1021.2 178.149C1038.4 216.73 1021.07 261.954 982.493 279.158L985.751 286.465C1028.37 267.461 1047.51 217.507 1028.51 174.89L1021.2 178.149ZM920.19 139.442C958.771 122.238 1003.99 139.567 1021.2 178.149L1028.51 174.89C1009.5 132.274 959.548 113.132 916.932 132.136L920.19 139.442ZM874.844 207.984C875.359 179.201 892.176 151.934 920.19 139.442L916.932 132.136C885.977 145.939 867.414 176.068 866.846 207.841L874.844 207.984ZM838.017 230.16L872.744 211.433L868.947 204.392L834.22 223.119L838.017 230.16ZM878.538 236.944L837.415 222.855L834.822 230.424L875.945 244.512L878.538 236.944ZM881.483 240.452C881.292 240.024 881.106 239.595 880.923 239.165L873.56 242.292C873.761 242.765 873.966 243.238 874.177 243.71L881.483 240.452ZM982.493 279.158C943.911 296.363 898.688 279.033 881.483 240.452L874.177 243.71C893.181 286.327 943.134 305.469 985.751 286.465L982.493 279.158Z" fill="#30352E" mask="url(#path-2-inside-1_307_39835)"/>
<g clip-path="url(#clip0_307_39835)">
<path d="M916.749 181.455C916.203 181.703 916.106 181.667 916.133 181.135C916.163 180.445 916.252 179.758 916.317 179.07C916.321 179.021 916.354 178.961 916.336 178.925C915.925 178.132 916.372 177.289 916.193 176.462C916.091 175.999 916.337 175.453 916.427 174.946C916.47 174.707 916.631 174.401 916.537 174.248C916.223 173.721 916.526 173.292 916.749 172.93C917.256 172.116 917.598 171.211 917.758 170.266C917.896 169.454 918.448 168.908 918.969 168.356C919.394 167.906 919.891 167.523 920.374 167.132C920.433 167.093 920.499 167.066 920.569 167.055C920.639 167.044 920.71 167.047 920.778 167.066C921.066 167.168 921.27 167.176 921.261 166.811C921.999 166.817 922.686 166.867 923.364 166.819C924.08 166.768 924.677 167.081 925.292 167.338C925.858 167.572 926.405 167.848 926.93 168.163C927.507 168.512 928.123 168.835 928.366 169.557C928.443 169.791 928.675 169.971 928.818 170.187C928.918 170.314 928.986 170.462 929.018 170.62C929.038 170.862 929.023 171.081 929.39 170.937C929.375 171.172 929.365 171.332 929.354 171.521L929.709 171.581L930.045 172.546L929.911 172.675C930.015 173.326 930.422 173.847 930.388 174.523C930.374 174.82 930.547 175.129 930.644 175.429C930.826 175.995 931.057 176.548 931.184 177.127C931.28 177.587 931.194 178.077 931.281 178.539C931.381 179.057 931.608 179.549 931.739 180.063C931.909 180.72 932.128 181.376 931.865 182.07C931.818 182.19 931.887 182.445 931.987 182.514C932.42 182.812 932.258 183.198 932.171 183.557C932.102 183.842 932.197 184.036 932.288 184.301C932.502 184.935 932.584 185.625 932.639 186.298C932.669 186.662 932.497 187.036 932.476 187.409C932.471 187.775 932.494 188.141 932.546 188.503C932.579 188.814 932.661 189.12 932.685 189.431C932.784 190.751 932.851 192.074 932.971 193.392C933.034 194.051 933.206 194.698 933.276 195.355C933.319 195.747 933.266 196.15 933.25 196.548C933.24 196.745 933.215 196.94 933.194 197.182L932.986 197.288C933.086 197.789 933.361 197.716 933.69 197.573C933.991 197.442 934.311 197.353 934.647 197.238C934.73 197.47 934.777 197.605 934.85 197.807C934.947 197.661 935.059 197.571 935.071 197.464C935.121 196.999 935.404 197.016 935.734 197.116C935.904 197.168 936.099 197.192 936.237 197.291C936.753 197.661 936.936 197.339 937.033 196.91C937.238 195.996 937.416 195.075 937.606 194.156C937.703 193.691 937.8 193.226 937.901 192.762C937.915 192.699 937.986 192.633 937.97 192.583C937.832 192.092 938.088 191.813 938.576 191.599C937.952 191.327 938.202 190.964 938.361 190.608C938.408 190.503 938.417 190.377 938.485 190.288C938.87 189.752 938.643 189.164 938.689 188.593C938.746 187.831 938.932 187.084 939.241 186.385C939.553 185.701 939.744 185.053 939.737 184.298C939.749 183.828 939.884 183.369 940.13 182.969C940.507 182.338 940.712 181.62 940.724 180.885C940.746 180.365 940.614 179.722 941.239 179.534C941.229 179.056 941.086 178.581 941.241 178.245C941.615 177.438 941.41 176.533 941.824 175.734C942.189 175.029 942.408 174.245 942.66 173.486C942.735 173.222 942.77 172.948 942.763 172.673C942.767 172.329 942.745 171.993 943.106 171.93C943.276 171.334 943.458 170.806 943.574 170.263C943.658 169.804 943.714 169.341 943.741 168.876C943.777 168.453 943.838 168.095 944.197 167.76C944.439 167.536 944.458 167.06 944.582 166.7C944.706 166.34 944.828 166.002 944.958 165.656C944.999 165.55 945.073 165.456 945.105 165.349C945.286 164.745 945.451 164.135 945.636 163.533C945.775 163.083 945.917 162.63 946.098 162.196C946.228 161.882 946.433 161.602 946.587 161.298C946.721 161.056 946.83 160.801 946.912 160.536C947.015 160.148 946.986 159.705 947.159 159.363C947.761 158.158 948.252 156.9 948.626 155.606C948.744 155.205 948.935 154.915 949.303 154.995L950.75 152.446L951.153 152.918C951.237 152.528 951.233 152.188 951.385 151.94C951.537 151.692 951.845 151.538 952.084 151.345L952.181 151.439C952.231 151.31 952.244 151.119 952.337 151.063C952.783 150.799 953.232 150.526 953.713 150.344C954.432 150.073 955.153 150.284 955.853 150.489C956.334 150.629 956.798 150.823 957.27 150.995C957.33 151.018 957.436 151.07 957.432 151.089C957.313 151.626 957.999 151.608 958.084 152.049C958.128 152.284 958.478 152.446 958.626 152.682C958.764 152.898 958.815 153.168 958.921 153.463C959.235 153.521 959.497 153.887 959.433 154.327C959.4 154.535 959.288 154.732 959.259 154.939C959.231 155.108 959.251 155.28 959.315 155.438C959.433 155.68 959.621 155.884 959.75 156.121C959.906 156.41 960.031 156.516 960.336 156.247C960.68 155.947 960.896 155.542 961.388 155.338C961.811 155.164 962.052 154.594 962.441 154.284C962.894 153.946 963.377 153.651 963.885 153.404C963.976 153.357 964.179 153.518 964.341 153.592C964.848 153.259 965.847 153.483 966.278 154.007C966.428 154.187 966.753 154.232 966.883 154.418C967.302 155.018 967.685 155.647 968.043 156.286C968.125 156.432 968.053 156.663 968.057 156.855C968.053 156.965 968.063 157.076 968.088 157.184C968.151 157.388 968.306 158.537 968.278 158.753C968.719 158.881 968.786 159.182 968.749 159.633C968.712 160.084 968.893 160.53 968.905 160.981C968.907 161.29 968.844 161.595 968.719 161.877C968.529 162.32 968.593 162.749 968.585 163.206C968.576 163.96 968.338 164.709 968.21 165.464C968.166 165.709 968.15 165.958 968.16 166.208C968.197 166.833 968.183 167.435 967.821 167.99C967.728 168.131 967.723 168.353 967.736 168.535C967.77 169.019 968.037 169.497 967.582 169.967C967.405 170.153 967.49 170.566 967.379 170.848C967.251 171.142 967.186 171.46 967.187 171.781C967.191 172.276 967.042 172.776 966.924 173.266C966.82 173.692 966.673 174.109 966.532 174.526C966.486 174.659 966.378 174.773 966.335 174.908C966.286 175.079 966.253 175.254 966.239 175.432C966.225 175.56 966.268 175.696 966.24 175.818C965.982 176.961 965.714 178.101 965.446 179.241C965.317 179.794 965.194 180.35 965.059 180.901C964.975 181.246 964.876 181.589 964.334 181.435C964.972 181.922 964.662 182.478 964.533 182.992C964.422 183.436 964.201 183.852 964.102 184.297C964.026 184.633 964.092 184.997 964.043 185.341C963.992 185.71 963.88 186.069 963.761 186.57C963.747 186.713 963.723 186.855 963.691 186.994C963.501 187.731 963.252 188.457 963.127 189.208C963.064 189.585 963.238 189.992 963.269 190.395C963.288 190.581 963.254 190.769 963.171 190.937C962.886 191.444 962.826 191.934 963.069 192.484C963.208 192.833 963.316 193.193 963.393 193.561C963.498 193.967 963.822 194.093 964.148 194.027C964.496 193.945 964.827 193.799 965.123 193.597C965.707 193.22 966.217 192.744 966.848 192.416C967.349 192.153 967.776 191.742 968.215 191.371C968.527 191.111 968.743 191.099 969.015 191.424C969.117 191.158 969.161 190.856 969.329 190.66C969.517 190.447 969.823 190.34 970.06 190.163C970.471 189.877 970.864 189.565 971.236 189.229C971.509 188.974 971.733 188.671 971.898 188.336C972.145 187.809 972.637 187.642 973.09 187.46C973.693 187.216 974.14 186.808 974.534 186.326C974.794 186.01 974.978 185.626 975.263 185.339C975.613 184.984 976.007 184.674 976.434 184.417C976.599 184.318 976.896 184.439 977.198 184.466L976.971 184.039C977.716 183.396 978.46 182.744 979.215 182.103C980.227 181.245 981.249 180.397 982.261 179.543C982.303 179.516 982.335 179.478 982.354 179.433C982.48 178.835 983.019 178.663 983.441 178.379C983.832 178.115 984.271 177.916 984.645 177.631C985.073 177.303 985.438 176.895 985.858 176.557C986.068 176.389 986.338 176.297 986.583 176.175C986.664 176.135 986.817 176.117 986.827 176.073C986.945 175.295 987.719 175.133 988.155 174.653C988.84 173.892 989.736 173.436 990.636 172.956C991.217 172.647 991.762 172.313 992.404 172.134C992.55 172.105 992.686 172.034 992.794 171.931C992.902 171.827 992.978 171.695 993.013 171.549C993.11 171.234 993.611 170.969 993.987 170.828C994.779 170.531 995.605 170.322 996.421 170.095C996.896 169.961 997.358 169.766 997.891 169.99C998.443 170.222 999.041 170.346 999.617 170.524C1000.11 170.677 1000.36 171.086 1000.55 171.519C1000.6 171.681 1000.6 171.855 1000.55 172.016C1000.43 172.371 1000.41 172.365 1000.79 172.48C1000.79 173.404 1000.67 174.298 1000.08 175.077L999.737 174.853C999.759 175.308 999.852 175.713 999.778 176.084C999.704 176.455 999.465 176.821 999.279 177.232C999.593 177.757 998.978 177.961 998.745 178.287C998.467 178.673 998.083 178.982 997.744 179.324L997.804 179.474C998.115 179.489 998.431 179.525 998.738 179.518C999.943 179.475 1000.95 179.829 1001.78 180.766C1002.27 181.328 1002.41 181.948 1002.46 182.675L1001.91 182.721C1002.42 182.957 1002.65 183.318 1002.54 183.854C1002.49 184.075 1002.38 184.279 1002.33 184.499C1002.31 184.643 1002.31 184.788 1002.32 184.932L1001.54 186.956L1001.27 186.736L1001.27 187.421C1001.1 187.415 1000.99 187.401 1000.88 187.408C1000.55 187.431 1000.43 187.647 1000.65 187.888C1000.89 188.16 1000.91 188.402 1000.68 188.668C1000.3 189.108 999.84 189.497 999.539 189.985C998.8 191.203 997.877 192.3 996.802 193.235C996.488 193.5 996.266 193.874 996.029 194.212C995.969 194.3 996.007 194.456 995.997 194.609C995.34 194.591 995.288 195.253 994.934 195.593C994.302 196.2 994.06 197.179 993.075 197.474C993.128 197.706 993.18 197.904 993.242 198.173L990.73 200.973L990.332 200.961C990.326 201.17 990.322 201.357 990.319 201.544C989.868 201.615 989.447 202.159 989.342 202.619C989.206 202.791 989.074 202.965 988.932 203.131C988.412 203.739 987.841 204.313 987.378 204.963C987.072 205.388 986.897 205.912 986.689 206.403C986.529 206.78 986.414 207.176 986.271 207.561C986.224 207.681 986.138 207.786 986.091 207.907C985.773 208.747 985.192 209.461 984.435 209.945C984.234 210.079 984.163 210.418 984.059 210.674C983.984 210.868 984.009 211.138 983.881 211.269C983.489 211.672 983.247 212.209 982.666 212.451C982.085 212.693 981.991 213.338 981.719 213.833C981.641 213.976 981.48 214.074 981.291 214.167C981.053 214.377 980.742 214.545 980.594 214.807C980.285 215.354 979.629 215.662 979.561 216.386C979.54 216.639 979.317 216.87 979.215 217.123C979.008 217.635 978.825 218.156 978.623 218.671C978.597 218.739 978.493 218.777 978.47 218.845C978.358 219.139 978.263 219.44 978.185 219.745C978.078 220.283 977.764 220.758 977.312 221.069C977.518 221.536 977.329 221.936 977.056 222.377C976.732 222.903 976.543 223.512 976.291 224.082C976.227 224.211 976.153 224.335 976.071 224.454C975.971 224.617 975.821 224.767 975.776 224.944C975.542 225.839 974.977 226.515 974.403 227.205C974.174 227.479 974.075 227.872 973.96 228.225C973.728 228.935 973.446 229.613 972.823 230.073C972.662 230.193 972.459 230.256 972.228 230.372C972.646 230.691 972.381 230.97 972.225 231.329C971.72 232.498 970.961 233.506 970.179 234.477C969.748 235.011 969.356 235.632 968.676 235.969C968.415 236.099 968.253 236.452 968.069 236.72C967.537 237.508 967.025 238.308 966.489 239.092C966.368 239.267 966.213 239.416 966.034 239.531C965.305 239.989 964.899 240.71 964.421 241.389C964.08 241.873 963.557 242.229 963.113 242.64C962.724 243 962.338 243.364 961.939 243.714C961.113 244.441 960.256 245.136 959.457 245.893C959.099 246.231 958.85 246.686 958.549 247.086C958.407 247.275 958.096 247.333 958.156 247.696C958.168 247.769 957.816 247.903 957.624 248.013C957.803 248.683 957.501 249.036 956.599 249.087L957.05 249.519C956.788 249.825 956.53 250.135 956.262 250.435C955.906 250.833 955.556 251.187 955.427 251.776C955.277 252.471 954.958 253.15 954.603 253.774C954.172 254.536 953.626 255.233 953.127 255.953C953.109 255.98 953.074 256.01 953.076 256.039C953.155 256.685 952.678 257.12 952.401 257.593C952.107 258.097 951.874 258.713 951.272 258.996C951.217 259.023 951.172 259.069 951.146 259.124C950.983 259.49 950.986 259.492 950.615 259.464C950.555 260.039 950.156 260.328 949.634 260.448C949.456 260.485 949.246 260.404 949.051 260.373C948.991 260.351 948.929 260.337 948.866 260.329C948.417 260.375 947.968 260.43 947.519 260.479C947.439 260.495 947.358 260.495 947.278 260.481C946.527 260.252 945.781 260.008 945.029 259.784C944.771 259.707 944.488 259.694 944.244 259.586C943.424 259.246 942.625 258.875 941.812 258.529C941.255 258.292 940.641 258.152 940.141 257.831C939.548 257.451 938.908 257.388 938.264 257.256C938.147 257.214 938.037 257.152 937.942 257.072C937.836 257.004 937.745 256.89 937.629 256.86C937.216 256.753 936.785 256.705 936.381 256.57C935.639 256.323 934.917 256.012 934.174 255.764C933.832 255.65 933.595 255.52 933.75 255.071C932.916 255.667 931.927 255.291 931.352 254.811C930.497 254.095 929.601 253.42 928.381 253.418C928.108 253.418 927.841 253.175 927.561 253.078C927.251 252.971 926.927 252.905 926.61 252.816C926.437 252.767 926.168 252.751 926.111 252.641C925.655 251.715 924.54 252.087 923.927 251.505C923.266 250.875 922.351 250.732 921.607 250.26C920.764 249.723 920.436 248.863 920.208 247.962C920.069 247.448 919.994 246.919 919.983 246.386C919.983 246.076 920.176 245.757 920.318 245.458C920.451 245.177 920.632 244.919 920.789 244.649C920.83 244.567 920.866 244.483 920.896 244.397L920.571 244.275C920.892 243.772 921.234 243.268 921.536 242.744C921.614 242.609 921.541 242.395 921.588 242.236C921.748 241.693 921.938 241.159 922.107 240.619C922.25 240.145 922.516 239.642 922.468 239.18C922.423 238.747 922.035 238.35 921.797 237.938C921.502 237.433 921.206 236.929 920.91 236.426C920.872 236.337 920.819 236.256 920.753 236.186C919.975 235.59 919.552 234.771 919.234 233.867C919.065 233.388 918.804 232.939 918.562 232.486C918.534 232.434 918.368 232.455 918.241 232.438C918.289 232.263 918.327 232.124 918.37 231.959C918.065 231.804 917.935 231.592 918.195 231.272C918.228 231.232 918.14 231.086 918.1 230.993C918.01 230.789 917.898 230.598 917.823 230.385C917.732 230.138 917.607 229.878 917.608 229.624C917.611 229.067 917.689 228.507 917.712 227.948C917.727 227.579 917.663 227.207 917.698 226.843C917.788 225.912 917.955 224.987 918.014 224.056C918.07 223.156 917.947 222.24 918.056 221.351C918.151 220.557 917.922 219.783 918.116 218.978C918.222 218.541 917.988 217.987 917.807 217.526C917.646 217.12 917.66 216.792 917.939 216.491C918.483 215.904 918.488 215.847 917.976 215.49C917.892 215.001 917.773 214.623 917.773 214.244C917.773 213.609 917.86 212.969 917.891 212.331C917.908 211.964 917.895 211.593 917.886 211.226C917.866 210.397 917.623 209.555 918.034 208.746C918.079 208.658 918.136 208.507 918.102 208.473C917.696 208.072 918.07 207.561 917.893 207.129C917.407 205.952 917.721 204.669 917.419 203.466C917.414 203.45 917.413 203.433 917.416 203.417C917.533 202.943 917.833 202.42 917.721 202.008C917.596 201.545 917.508 201.124 917.574 200.659C917.583 200.599 917.603 200.508 917.573 200.478C917.192 200.119 917.165 199.664 917.144 199.173C917.133 198.93 917.077 198.762 917.293 198.578C917.365 198.516 917.326 198.284 917.291 198.141C917.173 197.673 917.031 197.211 916.908 196.743C916.803 196.39 916.719 196.032 916.654 195.669C916.619 195.438 916.679 195.193 916.676 194.954C916.675 194.79 916.689 194.595 916.61 194.468C916.447 194.202 916.472 194.003 916.721 193.838C917.053 193.626 917.043 193.366 916.911 193.034C916.677 192.446 916.422 191.857 916.295 191.244C916.244 190.944 916.167 190.65 916.063 190.364C915.949 190.074 916.049 189.698 916.062 189.36C916.082 188.829 916.113 188.297 916.13 187.766C916.144 187.524 916.139 187.282 916.115 187.041C916.026 186.316 916.119 185.576 915.813 184.865C915.69 184.58 915.813 184.188 915.835 183.844C915.839 183.786 915.913 183.737 915.932 183.676C916.17 182.921 915.956 182.01 916.749 181.455ZM957.369 241.935L957.505 242.014C957.671 241.966 957.868 241.96 957.996 241.862C958.281 241.645 958.526 241.377 958.795 241.137C959.146 240.822 959.534 240.542 959.853 240.197C960.342 239.666 961.207 239.429 961.214 238.502C961.214 238.45 961.277 238.39 961.323 238.348C962.047 237.676 962.773 237.02 963.489 236.348C963.613 236.222 963.72 236.079 963.805 235.924C964.187 235.282 964.558 234.635 964.936 233.991C964.952 233.962 964.978 233.939 965.01 233.929C965.435 233.845 965.594 233.512 965.786 233.171C965.889 232.988 966.135 232.891 966.291 232.732C966.529 232.491 966.876 232.259 966.947 231.969C967.105 231.319 967.428 230.998 968.05 231.097C968.085 231.103 968.13 231.053 968.076 231.085C968.12 230.768 968.11 230.516 968.195 230.302C968.337 229.934 968.341 229.534 968.788 229.254C969.178 229.01 969.386 228.471 969.671 228.063C969.774 227.874 969.891 227.725 969.971 227.561C970.307 226.915 970.669 226.279 970.946 225.612C971.148 225.126 971.507 224.802 972.027 224.85C972.047 224.662 972.034 224.461 972.093 224.285C972.422 223.292 972.787 222.312 973.102 221.315C973.277 220.763 973.67 220.332 973.874 219.782C973.982 219.472 974.054 219.151 974.088 218.824C974.092 218.71 974.109 218.596 974.141 218.486C974.374 217.918 974.599 217.344 974.866 216.79C975.166 216.137 975.501 215.501 975.871 214.884C976.243 214.288 976.699 213.745 977.114 213.176C977.162 213.111 977.181 213.025 977.225 212.958C977.514 212.52 977.807 212.087 978.095 211.65C978.549 210.957 979.278 210.421 979.332 209.495C979.356 209.4 979.406 209.313 979.476 209.245C979.747 208.911 980.085 208.615 980.286 208.244C980.777 207.345 981.384 206.53 981.977 205.701C982.419 205.083 982.827 204.444 983.249 203.806C983.312 203.712 983.417 203.595 983.402 203.506C983.299 202.906 983.779 202.664 984.116 202.369C984.669 201.908 985.13 201.347 985.475 200.715C985.7 200.286 985.947 199.795 986.325 199.537C986.771 199.233 986.977 198.838 987.223 198.411C987.437 198.04 987.749 197.722 988.037 197.399C988.217 197.202 988.416 197.023 988.63 196.863C989.044 196.548 989.274 196.121 989.451 195.65C989.478 195.579 989.557 195.48 989.616 195.478C990.249 195.443 990.315 194.817 990.606 194.467C991.144 193.82 991.273 192.914 992.035 192.351C992.569 191.957 992.906 191.299 993.348 190.773C993.454 190.649 993.751 190.576 993.747 190.488C993.724 190.001 994.195 189.815 994.352 189.441C994.457 189.19 994.73 188.786 995.146 189.23C995.207 189.296 995.438 189.204 995.72 189.168L995.341 188.857C995.913 187.873 996.467 186.917 997.041 185.928C997.315 186.098 997.472 186.027 997.615 185.677C998.023 184.671 998.489 183.688 998.905 182.758C998.584 182.359 998.323 182.408 997.979 182.518C997.497 182.67 996.98 182.686 996.481 182.785C996.169 182.84 995.863 182.922 995.565 183.03C995.033 183.232 994.422 183.291 994.151 183.954C994.025 184.263 993.739 184.52 993.49 184.765C993.074 185.174 992.582 185.515 992.207 185.961C991.779 186.47 991.447 187.059 991.09 187.587C990.511 187.381 990.539 187.391 990.38 187.849C990.229 188.236 990.058 188.616 989.869 188.986C989.64 189.004 989.397 188.952 989.319 189.041C989.054 189.357 988.851 189.723 988.614 190.064C988.543 190.168 988.458 190.302 988.352 190.336C987.869 190.491 987.664 190.882 987.52 191.301C987.37 191.736 987.059 191.912 986.648 191.989C986.026 192.106 986.026 192.107 986.35 192.557C986.243 192.737 986.123 192.91 985.99 193.072C985.79 193.288 985.588 193.567 985.34 193.659C984.738 193.87 984.408 194.321 984.084 194.809C983.944 195.019 983.777 195.211 983.613 195.426L983.318 194.934C983.241 195.175 983.15 195.41 983.046 195.64C982.83 196.032 982.657 196.485 982.341 196.777C982.045 197.051 981.586 197.147 981.202 197.33C981.089 197.375 980.986 197.443 980.901 197.531C980.693 197.795 980.509 198.08 980.303 198.347C979.879 198.896 979.462 199.45 979.014 199.976C978.864 200.152 978.61 200.385 978.432 200.363C978.028 200.312 977.965 200.554 977.856 200.815C977.747 201.075 977.643 201.297 977.27 201.3C977.058 201.3 976.802 201.471 976.654 201.642C975.979 202.416 975.27 203.004 974.125 202.683C973.587 202.532 973.367 202.284 973.183 201.752C972.998 201.22 973.239 200.758 973.277 200.267C973.288 200.124 973.468 199.991 973.578 199.855C973.792 199.595 974.011 199.338 974.289 199.008C974.552 198.793 974.933 198.551 975.226 198.226C975.453 197.977 975.632 197.771 975.996 197.899C976.058 197.923 976.138 197.889 976.265 197.877L975.937 197.434C976.213 197.15 976.498 196.891 976.742 196.599C977.029 196.254 977.256 195.858 977.556 195.526C977.817 195.236 978.263 195.197 978.489 194.792C978.639 194.523 979.031 194.402 979.269 194.167C979.756 193.686 980.224 193.181 980.681 192.668C981.114 192.18 981.514 191.661 981.948 191.172C982.105 191.018 982.279 190.883 982.467 190.77C982.676 190.627 982.891 190.495 983.11 190.362C983.69 190.005 983.868 189.193 984.627 189.024C984.712 189.005 984.756 188.813 984.821 188.702C984.877 188.607 984.921 188.444 984.995 188.43C985.445 188.346 985.629 187.991 985.865 187.665C986.119 187.315 986.373 186.928 986.719 186.692C987.116 186.422 987.396 186.068 987.726 185.747C988.295 185.195 988.42 184.288 989.224 183.951C989.26 183.936 989.273 183.871 989.298 183.83C989.537 183.448 989.721 183.01 990.029 182.698C990.374 182.352 990.855 182.146 991.232 181.827C991.501 181.577 991.74 181.297 991.946 180.993C992.269 180.558 992.575 180.109 992.871 179.659C992.948 179.542 992.966 179.386 993.017 179.233C993.471 179.318 993.57 178.896 993.822 178.662C994.155 178.348 994.182 177.714 994.627 177.729C994.957 177.365 995.21 177.116 995.428 176.839C995.611 176.606 995.917 176.574 996.047 176.178C996.227 175.626 996.245 174.931 996.824 174.552C997.038 174.411 997.259 174.284 997.534 174.117C997.224 173.827 997.214 173.526 997.488 173.208C997.515 173.177 997.353 172.881 997.244 172.854C996.964 172.8 996.68 172.769 996.395 172.761C996.205 172.978 996.1 173.176 995.932 173.283C995.538 173.527 995.113 173.719 994.708 173.944C994.424 174.102 994.155 174.281 993.878 174.45C993.447 174.714 993.019 174.982 992.585 175.241C991.941 175.626 991.29 176.009 990.746 176.327C990.618 176.521 990.478 176.706 990.327 176.882C989.811 177.396 989.283 177.898 988.765 178.41C988.661 178.512 988.596 178.662 988.487 178.752C988.024 179.141 987.554 179.523 987.078 179.899C986.815 180.106 986.537 180.294 986.245 180.505C986.133 180.667 986.031 180.944 985.833 181.076C985.264 181.452 984.628 181.711 984.16 182.252C983.928 182.521 983.554 182.665 983.248 182.87C983.17 182.919 983.098 182.979 983.036 183.046C982.442 183.703 981.866 184.378 981.253 185.015C981.005 185.274 980.677 185.453 980.331 185.708C979.998 185.622 979.8 185.765 979.742 186.201C979.733 186.316 979.685 186.424 979.607 186.508C979.078 186.932 978.535 187.337 978.001 187.755C977.866 187.858 977.744 187.977 977.64 188.111C977.541 188.245 977.503 188.427 977.4 188.547C976.862 189.192 976.294 189.801 975.492 190.136C975.343 190.206 975.212 190.31 975.109 190.438C974.677 190.94 974.311 191.505 973.823 191.95C973.216 192.5 972.525 192.961 971.856 193.439C971.048 194.019 970.193 194.537 969.418 195.158C968.897 195.575 968.434 196.047 967.857 196.416C967.036 196.944 966.242 197.271 965.43 197.05C964.982 197.419 964.649 197.793 964.233 197.997C963.981 198.12 963.72 198.161 963.474 198.371C963.283 198.534 962.88 198.663 962.592 198.322C962.482 198.202 962.337 198.12 962.177 198.09C961.897 198.042 961.608 198.057 961.323 198.032C960.302 197.938 960.129 197.017 959.744 196.348C959.48 195.891 959.345 195.348 959.207 194.833C959.086 194.372 959.008 193.901 958.972 193.426C958.948 192.94 958.949 192.454 958.976 191.969C958.969 191.807 958.995 191.645 959.054 191.494C959.374 190.843 959.311 190.171 959.26 189.48C959.228 189.044 959.173 188.455 959.412 188.188C959.675 187.892 959.669 187.684 959.633 187.382C959.564 186.804 959.489 186.224 959.444 185.642C959.434 185.464 959.47 185.287 959.549 185.127C959.745 184.718 959.964 184.32 960.205 183.936C960.446 183.562 960.145 182.955 960.732 182.737C960.747 182.719 960.758 182.697 960.764 182.674C960.77 182.65 960.77 182.626 960.765 182.603C960.507 182.389 960.756 182.183 960.762 181.973C960.785 181.099 960.978 180.237 961.331 179.436C961.645 178.711 961.755 177.876 961.87 177.078C962 176.195 962.043 175.319 962.36 174.445C962.582 173.835 962.393 173.078 962.693 172.425C962.816 172.156 962.883 171.858 962.985 171.576C963.098 171.266 963.223 170.962 963.33 170.685C963.302 170.482 963.186 170.236 963.252 170.066C963.395 169.717 963.648 169.414 963.829 169.078C963.873 168.998 963.814 168.861 963.8 168.75C963.786 168.638 963.76 168.503 963.748 168.378C963.688 167.75 964.302 167.218 964.019 166.552C964.005 166.52 964.054 166.46 964.062 166.415C964.144 165.876 964.216 165.337 964.302 164.798C964.393 164.236 964.485 163.674 964.603 163.117C964.621 163.035 964.781 162.982 964.876 162.915L964.741 162.915C964.693 162.644 964.665 162.371 964.655 162.096C964.678 161.247 965.109 160.422 964.795 159.545C964.754 159.424 964.864 159.236 964.938 159.098C965.079 158.83 964.951 158.459 964.67 158.496C964.184 158.558 964.203 158.315 964.229 157.98C964.266 157.522 964.011 157.324 963.655 157.593C963.138 157.986 962.301 157.901 962.053 158.697C961.997 158.877 961.793 159.01 961.66 159.167C961.315 159.571 960.971 159.978 960.625 160.383C960.522 160.505 960.381 160.606 960.32 160.749C960.076 161.322 959.792 161.891 959.647 162.49C959.529 162.996 959.575 163.539 959.067 163.858C959.118 164.026 959.225 164.197 959.208 164.356C959.166 164.756 959.127 165.17 958.976 165.535C958.862 165.808 958.857 166.276 958.298 166.193C958.087 166.162 958.015 166.363 958.22 166.556C958.537 166.854 958.543 167.229 958.28 167.578C958.177 167.703 958.098 167.846 958.047 168C957.846 168.74 958.146 169.553 957.73 170.268C957.704 170.312 957.768 170.4 957.754 170.458C957.707 170.646 957.694 170.87 957.58 171.008C957.048 171.649 956.779 172.369 956.847 173.212C956.866 173.44 956.838 173.67 956.766 173.888C956.455 174.785 956.071 175.659 955.813 176.569C955.536 177.557 955.362 178.574 955.143 179.578C954.98 180.323 954.865 181.082 954.638 181.805C954.402 182.553 954.057 183.266 953.742 184.038C954.093 184.402 954.061 184.579 953.614 184.917C953.527 185.469 953.52 185.897 953.388 186.281C953.109 187.087 953.481 188.027 952.859 188.755C952.823 188.797 952.848 188.883 952.828 188.943C952.772 189.112 952.709 189.278 952.647 189.444C952.607 189.547 952.532 189.649 952.529 189.75C952.533 190.673 951.954 191.27 951.305 191.765C951.048 191.961 950.559 192.031 950.247 191.933C949.706 191.762 949.413 191.25 949.376 190.693C949.358 190.425 949.568 190.141 949.694 189.817C949.468 189.55 949.375 188.692 949.625 188.478C950.102 188.064 950.301 187.583 950.153 186.946C950.1 186.721 950.099 186.411 950.218 186.231C950.73 185.452 950.593 184.57 950.698 183.725C950.768 183.155 950.57 182.576 950.861 182.003C951.124 181.494 951.31 180.949 951.411 180.385C951.57 179.45 951.604 178.496 951.732 177.555C951.852 176.697 952.018 175.845 952.175 174.992C952.191 174.907 952.306 174.846 952.345 174.76C952.578 174.261 952.849 173.774 953.015 173.253C953.131 172.887 953.086 172.471 953.144 172.082C953.166 171.934 953.353 171.783 953.329 171.661C953.2 171 953.392 170.446 953.776 169.919C953.869 169.789 953.855 169.579 953.884 169.405C953.964 168.925 954.092 168.446 954.112 167.963C954.134 167.424 954.994 167.077 954.461 166.512C954.592 166.238 954.727 166.032 954.791 165.808C954.945 165.268 955.03 164.706 955.211 164.173C955.569 163.1 956.092 162.072 956.011 160.896C955.991 160.603 955.92 160.311 955.881 160.045L956.381 159.998C956.215 159.722 955.941 159.47 955.968 159.26C956.073 158.424 956.138 157.624 955.541 156.927C955.513 156.886 955.499 156.838 955.502 156.788C955.535 156.157 955.326 155.603 955.087 155.029C954.744 154.204 954.41 154.1 953.82 154.751C953.753 154.823 953.694 154.9 953.642 154.983C953.353 155.457 953.065 155.929 952.793 156.411C952.558 156.837 952.293 157.26 952.151 157.718C951.987 158.253 951.536 158.628 951.462 159.229C951.418 159.595 951.013 159.901 950.875 160.278C950.613 160.997 950.396 161.73 950.225 162.476C950.14 162.837 949.996 163.035 949.761 163.03C949.629 163.623 949.543 164.169 949.378 164.69C949.273 165.019 949.001 165.293 948.887 165.62C948.733 166.061 948.754 166.585 948.526 166.971C948.243 167.45 948.021 167.903 947.912 168.465C947.722 169.449 947.392 170.416 947.131 171.392C947.095 171.529 947.125 171.683 947.106 171.826C947.087 172.001 947.095 172.198 947.012 172.343C946.665 172.986 946.283 173.61 945.934 174.253C945.901 174.318 945.882 174.389 945.879 174.462C945.875 174.534 945.888 174.607 945.915 174.674C946.123 175.023 946.056 175.25 945.651 175.418C945.92 175.669 945.996 175.91 945.608 176.11C945.554 176.138 945.539 176.25 945.516 176.326C945.303 177.026 945.071 177.72 944.884 178.427C944.583 179.557 944.304 180.693 944.03 181.831C943.885 182.432 943.92 183.13 943.614 183.625C943.006 184.612 942.855 185.721 942.486 186.769C942.355 187.141 942.608 187.851 941.684 187.721C942.291 188.006 942.237 188.374 941.997 188.794C941.867 189.021 941.69 189.265 941.676 189.509C941.644 190.14 941.588 190.716 941.292 191.323C940.933 192.05 940.729 192.844 940.693 193.654C940.669 194.467 940.121 195.07 940.081 195.866C940.058 196.314 939.695 196.74 939.517 197.188C939.473 197.302 939.512 197.561 939.581 197.59C940.083 197.804 940.611 197.958 941.116 198.168C941.397 198.299 941.666 198.455 941.919 198.635C942.011 198.714 942.093 198.804 942.163 198.904C942.593 198.51 942.557 198.555 942.964 198.888C943.205 199.086 943.58 199.114 943.896 199.213C944.164 199.296 944.476 199.31 944.697 199.46C945.189 199.794 945.63 200.2 946.104 200.562C946.2 200.635 946.35 200.634 946.463 200.693C946.756 200.846 947.101 200.955 947.322 201.186C948.182 202.093 948.939 203.107 949.867 203.935C950.194 204.226 950.541 204.381 950.654 204.863C950.719 205.143 950.967 205.382 951.073 205.545L950.856 206.107L951.424 206.234C951.582 206.507 951.752 206.821 951.942 207.122C952.186 207.509 952.478 207.869 952.688 208.273C952.864 208.638 953 209.021 953.092 209.415C953.129 209.556 953.022 209.735 953.008 209.787C953.23 210.099 953.562 210.356 953.584 210.644C953.659 211.531 954.208 212.328 954.034 213.266C953.986 213.523 954.19 213.819 954.246 214.103C954.321 214.482 954.374 214.866 954.416 215.251C954.442 215.492 954.427 215.737 954.43 215.981L954.566 216.016L954.087 216.384C954.137 216.643 954.265 216.901 954.216 217.119C954.031 217.945 954.02 218.804 953.658 219.601C953.281 220.434 952.344 220.827 951.651 220.362C951.22 220.072 950.98 219.363 951.194 218.94C950.985 218.813 950.815 218.63 950.702 218.413C950.589 218.196 950.537 217.952 950.552 217.708C950.567 217.222 950.557 216.734 950.549 216.247C950.545 216.034 950.52 215.826 950.497 215.616C950.468 215.366 950.506 214.954 950.385 214.9C950.018 214.734 950.13 214.443 950.092 214.199C950.05 213.918 949.963 213.653 950.104 213.335C950.18 213.164 949.907 212.854 949.821 212.597C949.64 212.055 949.624 211.44 949.093 211.06C949.038 211.021 949.033 210.915 949.003 210.84C948.75 210.18 948.58 209.474 948.221 208.875C947.757 208.095 947.139 207.408 946.602 206.671C946.334 206.304 946.181 205.777 945.828 205.565C945 205.064 944.714 203.922 943.63 203.758C943.605 203.754 943.584 203.712 943.566 203.685C943.326 203.328 943.149 202.927 942.671 202.778C942.378 202.686 942.138 202.416 941.844 202.342C940.745 202.061 939.623 201.87 938.532 201.562C937.553 201.29 936.616 200.874 935.567 201.025C934.947 201.113 934.322 201.178 933.69 201.25L933.316 200.689C933.221 200.799 933.147 200.852 933.121 200.918C933.035 201.245 932.839 201.375 932.51 201.287C932.181 201.199 931.852 201.042 931.521 201.037C931.086 201.03 930.773 200.807 930.678 200.482C930.525 199.968 930.202 199.522 929.762 199.216C929.632 199.121 929.526 198.991 929.404 198.884C928.93 198.469 928.636 197.478 928.919 196.922C929.218 196.335 929.088 195.803 928.963 195.215C928.86 194.732 928.434 194.14 929.193 193.799C928.974 193.641 928.69 193.542 928.644 193.376C928.553 193.064 928.599 192.715 928.605 192.383C928.607 192.157 928.669 191.924 928.635 191.706C928.573 191.302 928.339 190.915 928.568 190.493C928.595 190.444 928.596 190.333 928.564 190.307C928.178 189.994 928.493 189.626 928.466 189.286C928.421 188.727 928.405 188.15 928.241 187.623C928.157 187.355 927.975 187.165 928.166 186.875C928.227 186.783 928.196 186.629 928.205 186.502C928.272 185.84 927.736 185.187 928.174 184.515C928.198 184.48 928.143 184.397 928.129 184.335C928.033 183.945 927.968 183.543 927.84 183.166C927.643 182.596 928.289 182.05 927.738 181.403C927.375 180.975 927.343 180.237 927.216 179.629C927.138 179.256 927.193 178.857 927.122 178.481C927.004 177.851 926.823 177.233 926.693 176.606C926.672 176.492 926.766 176.361 926.805 176.238C926.821 176.196 926.828 176.151 926.85 176.066L926.557 176.094C926.346 175.635 926.152 175.212 925.957 174.79C925.87 174.601 925.78 174.412 925.69 174.225C925.404 173.632 925.546 172.956 925.178 172.328C924.903 171.86 924.47 171.579 924.206 171.131C924.05 170.865 923.685 170.723 923.419 170.529C922.48 170.44 921.873 171.064 921.301 171.891C921.546 172.548 921.229 173.284 920.918 173.992C920.676 174.541 920.26 175.022 920.569 175.677C920.592 175.726 920.564 175.799 920.56 175.86C920.517 176.584 920.471 177.306 920.431 178.031C920.404 178.524 920.389 179.018 920.365 179.511C920.352 179.784 920.267 180.073 920.331 180.324C920.46 180.835 920.327 181.241 920.076 181.529C920.164 181.762 920.274 181.913 920.267 182.059C920.246 182.447 920.168 182.831 920.123 183.219C920.082 183.579 920.055 183.941 920.016 184.363L919.468 184.247C919.52 184.337 919.534 184.396 919.567 184.41C920.386 184.774 920.57 185.34 920.181 186.154C920.08 186.366 920.019 186.703 920.12 186.877C920.183 186.967 920.22 187.072 920.228 187.182C920.236 187.291 920.214 187.4 920.164 187.498C920.098 187.669 920.122 187.88 920.117 188.072C920.11 188.809 920.452 189.552 920.031 190.271C920.013 190.303 920.044 190.363 920.051 190.411L920.181 191.277C920.252 191.379 920.312 191.489 920.358 191.605C920.436 191.834 920.495 192.069 920.534 192.307C920.581 192.539 920.605 192.775 920.603 193.012C920.594 193.266 920.405 193.615 920.513 193.756C921.075 194.491 920.727 195.275 920.819 196.105C921.201 196.381 921.069 197.144 920.802 197.624C921.082 197.853 920.96 198.377 921.427 198.47C921.406 198.541 921.39 198.614 921.381 198.688C921.355 199.135 921.217 199.616 921.338 200.019C921.539 200.69 921.467 201.326 921.387 201.986C921.319 202.562 921.267 203.142 921.607 203.678C921.79 203.96 921.839 204.227 921.354 204.298C921.215 204.318 921.106 204.543 920.982 204.674L921.331 204.931C921.441 205.291 921.56 205.62 921.646 205.961C921.667 206.103 921.661 206.248 921.631 206.388C921.577 206.823 921.489 207.255 921.463 207.691C921.439 208.105 921.478 208.527 921.483 208.945C921.487 209.281 921.421 209.633 921.497 209.952C921.59 210.35 921.539 210.664 921.261 210.951C921.318 211.065 921.411 211.174 921.427 211.295C921.571 212.408 921.013 213.461 921.193 214.598C921.281 215.147 921.088 215.737 921.078 216.308C921.068 216.921 921.137 217.537 921.145 218.152C921.154 218.825 920.714 219.417 920.86 220.147C920.989 220.787 920.916 221.471 920.914 222.135C920.914 222.452 920.847 222.777 920.841 223.098C920.826 223.765 920.801 224.434 920.835 225.104C920.889 226.077 921.274 227.089 920.584 227.862C920.774 228.323 920.977 228.716 921.099 229.133C921.275 229.73 921.239 230.411 921.776 230.875C921.798 230.908 921.812 230.947 921.816 230.986C921.82 231.026 921.815 231.066 921.8 231.104C921.553 231.642 921.967 231.895 922.255 232.218C922.415 232.388 922.528 232.598 922.581 232.826C922.651 233.194 922.787 233.328 923.187 233.154C923.262 233.425 923.324 233.687 923.412 233.941C923.458 234.078 923.514 234.255 923.621 234.323C924.159 234.659 924.577 235.08 924.774 235.698C924.79 235.749 924.869 235.783 924.922 235.822C925.467 236.228 925.568 237.023 926.235 237.324C926.256 237.332 926.254 237.385 926.267 237.415C926.443 237.85 926.658 238.274 926.779 238.723C926.842 238.991 926.818 239.272 926.71 239.525C926.581 239.802 926.085 239.773 926.049 240.198C926.047 240.224 925.897 240.271 925.831 240.253C925.321 240.118 925.302 240.423 925.288 240.799C925.259 241.57 925.372 242.359 924.922 243.076C924.719 243.402 924.599 243.785 924.466 244.151C924.277 244.669 924.045 245.184 923.958 245.721C923.893 246.119 923.881 246.696 924.111 246.923C924.809 247.608 925.662 248.11 926.681 248.208C926.885 248.227 927.147 248.244 927.282 248.37C927.691 248.761 928.196 249.038 928.747 249.173C929.182 249.281 929.592 249.487 930.011 249.655C930.934 250.022 931.86 250.378 932.774 250.766C933.096 250.903 933.364 251.172 933.691 251.284C934.018 251.396 934.436 251.329 934.762 251.464C935.498 251.769 936.201 252.155 936.92 252.501C937.192 252.647 937.477 252.768 937.77 252.863C938.553 253.075 939.352 253.228 940.128 253.457C940.371 253.53 940.542 253.838 940.786 253.923C941.226 254.078 941.699 254.132 942.149 254.254C942.885 254.454 943.614 254.679 944.348 254.885C944.547 254.94 944.755 254.966 944.896 254.991C945.043 255.1 945.183 255.219 945.315 255.346C945.62 255.683 946.043 255.621 946.42 255.734C946.772 255.838 947.062 256.149 947.385 256.361C947.678 256.568 947.986 256.753 948.306 256.916C948.381 256.952 948.639 256.803 948.665 256.701C948.772 256.282 948.799 255.842 948.902 255.418C948.971 255.127 949.038 254.719 949.243 254.598C949.544 254.424 949.61 254.212 949.722 253.938C949.937 253.414 950.244 252.925 950.529 252.433C950.851 251.874 951.209 251.337 951.522 250.774C951.835 250.211 952.102 249.594 952.428 249.024C952.638 248.656 952.936 248.339 953.162 247.979C953.341 247.694 953.439 247.356 953.628 247.081C954.034 246.489 954.457 245.907 954.908 245.348C955.112 245.095 955.412 244.923 955.64 244.68C956.053 244.248 956.443 243.794 956.843 243.347C956.909 243.224 957.064 243.14 957.101 243.024C957.221 242.668 957.288 242.299 957.369 241.935Z" fill="black"/>
<path d="M957.37 241.935C957.286 242.298 957.222 242.668 957.11 243.022C957.072 243.142 956.917 243.226 956.853 243.346C956.454 243.79 956.064 244.244 955.65 244.678C955.423 244.916 955.123 245.089 954.917 245.347C954.467 245.905 954.042 246.489 953.638 247.079C953.449 247.355 953.351 247.692 953.172 247.977C952.945 248.337 952.647 248.654 952.437 249.022C952.111 249.592 951.85 250.197 951.531 250.772C951.213 251.347 950.861 251.873 950.539 252.431C950.253 252.924 949.948 253.413 949.732 253.936C949.618 254.215 949.553 254.423 949.253 254.597C949.048 254.715 948.98 255.126 948.911 255.416C948.81 255.837 948.783 256.277 948.674 256.699C948.649 256.802 948.39 256.95 948.315 256.915C947.995 256.752 947.688 256.566 947.394 256.359C947.071 256.147 946.782 255.837 946.429 255.732C946.05 255.618 945.629 255.681 945.325 255.344C945.193 255.217 945.053 255.098 944.906 254.989C944.766 254.961 944.558 254.935 944.358 254.883C943.623 254.677 942.895 254.453 942.159 254.253C941.708 254.13 941.235 254.077 940.796 253.922C940.552 253.835 940.382 253.527 940.137 253.456C939.361 253.226 938.563 253.073 937.78 252.861C937.486 252.766 937.202 252.645 936.93 252.499C936.21 252.153 935.508 251.768 934.772 251.462C934.445 251.327 934.038 251.399 933.7 251.282C933.362 251.166 933.107 250.902 932.784 250.764C931.87 250.376 930.944 250.02 930.021 249.653C929.601 249.486 929.191 249.279 928.756 249.172C928.206 249.037 927.701 248.76 927.291 248.368C927.157 248.243 926.898 248.227 926.691 248.206C925.671 248.108 924.817 247.605 924.121 246.921C923.891 246.695 923.905 246.113 923.968 245.72C924.055 245.183 924.287 244.667 924.475 244.149C924.61 243.778 924.728 243.401 924.932 243.075C925.382 242.357 925.268 241.568 925.297 240.798C925.311 240.422 925.33 240.116 925.84 240.252C925.906 240.27 926.057 240.222 926.058 240.196C926.09 239.77 926.591 239.801 926.719 239.524C926.828 239.27 926.852 238.989 926.788 238.721C926.668 238.272 926.451 237.851 926.277 237.413C926.264 237.383 926.265 237.331 926.245 237.323C925.578 237.022 925.477 236.227 924.932 235.82C924.879 235.782 924.799 235.748 924.783 235.696C924.586 235.079 924.169 234.657 923.631 234.321C923.523 234.253 923.468 234.076 923.421 233.939C923.335 233.686 923.274 233.424 923.197 233.152C922.796 233.326 922.654 233.19 922.591 232.824C922.537 232.596 922.424 232.387 922.264 232.217C921.977 231.894 921.561 231.644 921.81 231.102C921.825 231.065 921.83 231.024 921.826 230.985C921.821 230.945 921.807 230.907 921.785 230.874C921.246 230.411 921.282 229.736 921.108 229.132C920.987 228.715 920.787 228.322 920.594 227.861C921.284 227.087 920.899 226.075 920.844 225.103C920.809 224.437 920.832 223.767 920.85 223.096C920.857 222.775 920.922 222.454 920.923 222.133C920.926 221.469 920.998 220.788 920.87 220.145C920.724 219.415 921.164 218.824 921.155 218.15C921.147 217.536 921.077 216.92 921.088 216.306C921.097 215.735 921.29 215.145 921.202 214.596C921.018 213.462 921.581 212.405 921.437 211.293C921.421 211.173 921.328 211.064 921.271 210.95C921.549 210.663 921.6 210.348 921.506 209.95C921.431 209.632 921.497 209.28 921.493 208.943C921.488 208.526 921.448 208.105 921.473 207.69C921.499 207.253 921.586 206.821 921.64 206.386C921.671 206.246 921.676 206.102 921.656 205.96C921.57 205.619 921.452 205.286 921.34 204.93L920.992 204.672C921.115 204.541 921.224 204.317 921.363 204.296C921.849 204.225 921.798 203.962 921.616 203.676C921.277 203.14 921.329 202.561 921.397 201.984C921.475 201.324 921.549 200.689 921.347 200.018C921.226 199.614 921.365 199.133 921.39 198.686C921.4 198.612 921.415 198.539 921.437 198.468C920.971 198.376 921.093 197.852 920.812 197.622C921.079 197.142 921.211 196.379 920.829 196.104C920.736 195.274 921.085 194.49 920.523 193.754C920.415 193.613 920.606 193.265 920.613 193.01C920.614 192.773 920.591 192.537 920.544 192.305C920.505 192.067 920.446 191.832 920.368 191.603C920.322 191.487 920.262 191.377 920.19 191.275L920.061 190.409C920.054 190.362 920.022 190.301 920.041 190.269C920.462 189.55 920.121 188.804 920.126 188.07C920.128 187.877 920.105 187.666 920.174 187.496C920.223 187.399 920.245 187.289 920.238 187.18C920.23 187.071 920.193 186.966 920.13 186.876C920.028 186.701 920.09 186.364 920.191 186.153C920.579 185.339 920.395 184.773 919.577 184.409C919.543 184.395 919.53 184.336 919.478 184.246L920.026 184.361C920.065 183.94 920.092 183.578 920.133 183.217C920.177 182.829 920.255 182.445 920.276 182.058C920.284 181.912 920.173 181.76 920.086 181.527C920.339 181.24 920.473 180.831 920.34 180.322C920.276 180.071 920.361 179.782 920.375 179.51C920.398 179.016 920.414 178.522 920.441 178.029C920.481 177.305 920.526 176.582 920.57 175.859C920.574 175.797 920.602 175.724 920.579 175.675C920.27 175.021 920.686 174.54 920.928 173.99C921.238 173.282 921.555 172.546 921.31 171.889C921.883 171.063 922.489 170.441 923.429 170.528C923.695 170.721 924.06 170.864 924.216 171.129C924.479 171.578 924.912 171.858 925.187 172.326C925.559 172.956 925.414 173.631 925.7 174.223C925.79 174.411 925.88 174.6 925.966 174.789C926.162 175.211 926.356 175.634 926.566 176.093L926.86 176.064C926.837 176.15 926.828 176.194 926.814 176.236C926.775 176.359 926.68 176.494 926.703 176.604C926.832 177.232 927.013 177.849 927.131 178.48C927.198 178.853 927.149 179.255 927.226 179.628C927.354 180.236 927.382 180.972 927.748 181.402C928.299 182.048 927.653 182.594 927.85 183.165C927.981 183.542 928.046 183.943 928.138 184.333C928.153 184.395 928.207 184.478 928.184 184.514C927.746 185.185 928.281 185.838 928.214 186.501C928.202 186.626 928.233 186.78 928.176 186.874C927.984 187.164 928.167 187.354 928.25 187.622C928.415 188.148 928.431 188.726 928.476 189.284C928.502 189.624 928.188 189.992 928.573 190.305C928.605 190.331 928.605 190.442 928.577 190.491C928.349 190.913 928.582 191.3 928.645 191.704C928.679 191.923 928.616 192.155 928.615 192.381C928.613 192.716 928.57 193.065 928.654 193.374C928.696 193.538 928.984 193.637 929.203 193.798C928.444 194.139 928.871 194.727 928.973 195.214C929.098 195.801 929.227 196.333 928.928 196.92C928.646 197.477 928.938 198.466 929.413 198.883C929.536 198.989 929.64 199.118 929.771 199.215C930.212 199.52 930.535 199.966 930.688 200.48C930.786 200.807 931.099 201.029 931.53 201.035C931.861 201.041 932.19 201.198 932.52 201.286C932.85 201.373 933.045 201.243 933.131 200.916C933.149 200.848 933.228 200.796 933.325 200.688L933.699 201.249C934.331 201.176 934.957 201.112 935.577 201.023C936.63 200.874 937.568 201.286 938.541 201.561C939.632 201.868 940.754 202.059 941.853 202.34C942.143 202.413 942.388 202.684 942.681 202.776C943.158 202.926 943.335 203.326 943.576 203.683C943.594 203.711 943.615 203.752 943.64 203.757C944.724 203.92 945.01 205.062 945.838 205.563C946.19 205.776 946.344 206.302 946.611 206.669C947.149 207.406 947.766 208.094 948.23 208.874C948.587 209.472 948.759 210.179 949.013 210.838C949.042 210.913 949.048 211.02 949.102 211.059C949.633 211.439 949.649 212.054 949.831 212.596C949.917 212.852 950.191 213.158 950.114 213.333C949.973 213.652 950.059 213.917 950.102 214.198C950.14 214.442 950.028 214.732 950.395 214.899C950.515 214.953 950.478 215.364 950.506 215.614C950.531 215.825 950.555 216.035 950.558 216.245C950.567 216.732 950.577 217.22 950.562 217.706C950.546 217.95 950.598 218.194 950.711 218.412C950.825 218.629 950.995 218.811 951.204 218.939C950.99 219.361 951.23 220.07 951.661 220.361C952.354 220.825 953.29 220.432 953.667 219.599C954.029 218.802 954.04 217.945 954.226 217.117C954.275 216.9 954.146 216.642 954.096 216.382L954.576 216.015L954.44 215.979C954.436 215.736 954.452 215.49 954.426 215.249C954.385 214.864 954.33 214.481 954.256 214.102C954.2 213.817 953.996 213.521 954.043 213.265C954.218 212.327 953.667 211.533 953.593 210.642C953.57 210.358 953.238 210.101 953.017 209.785C953.031 209.733 953.138 209.555 953.102 209.414C953.01 209.019 952.874 208.636 952.697 208.272C952.488 207.867 952.195 207.508 951.951 207.121C951.761 206.819 951.592 206.506 951.433 206.232L950.865 206.106L951.083 205.544C950.977 205.38 950.728 205.141 950.663 204.861C950.551 204.38 950.203 204.225 949.877 203.933C948.949 203.105 948.192 202.091 947.331 201.185C947.113 200.954 946.766 200.845 946.472 200.691C946.359 200.633 946.21 200.634 946.113 200.561C945.64 200.198 945.198 199.792 944.707 199.459C944.485 199.309 944.174 199.294 943.905 199.211C943.589 199.112 943.215 199.083 942.974 198.886C942.566 198.553 942.603 198.508 942.172 198.902C942.103 198.802 942.021 198.712 941.928 198.633C941.675 198.454 941.407 198.297 941.125 198.166C940.621 197.957 940.092 197.802 939.59 197.588C939.521 197.561 939.482 197.301 939.527 197.187C939.701 196.737 940.068 196.312 940.091 195.864C940.131 195.069 940.678 194.465 940.703 193.652C940.738 192.842 940.942 192.048 941.302 191.322C941.6 190.716 941.654 190.138 941.686 189.508C941.7 189.263 941.875 189.019 942.007 188.792C942.247 188.371 942.301 188.003 941.693 187.719C942.618 187.849 942.363 187.143 942.496 186.767C942.865 185.719 943.013 184.609 943.624 183.624C943.93 183.129 943.895 182.43 944.039 181.829C944.313 180.692 944.593 179.555 944.893 178.425C945.081 177.718 945.312 177.024 945.526 176.324C945.549 176.248 945.563 176.137 945.617 176.109C946.006 175.908 945.93 175.667 945.661 175.416C946.063 175.254 946.13 175.023 945.925 174.672C945.898 174.605 945.885 174.533 945.888 174.46C945.892 174.387 945.911 174.316 945.944 174.252C946.291 173.61 946.674 172.986 947.022 172.342C947.101 172.195 947.093 171.998 947.116 171.824C947.132 171.68 947.105 171.527 947.141 171.39C947.402 170.414 947.729 169.452 947.921 168.463C948.032 167.903 948.252 167.448 948.536 166.969C948.763 166.583 948.743 166.059 948.897 165.619C949.011 165.292 949.283 165.017 949.388 164.689C949.553 164.168 949.638 163.622 949.77 163.028C950.005 163.034 950.149 162.836 950.234 162.474C950.406 161.729 950.623 160.995 950.885 160.277C951.02 159.906 951.428 159.593 951.471 159.227C951.544 158.621 951.993 158.25 952.161 157.716C952.303 157.258 952.567 156.835 952.802 156.41C953.071 155.926 953.366 155.456 953.651 154.982C953.703 154.899 953.763 154.821 953.829 154.749C954.415 154.098 954.748 154.201 955.096 155.027C955.336 155.601 955.55 156.154 955.512 156.787C955.509 156.836 955.522 156.885 955.55 156.925C956.148 157.623 956.083 158.422 955.978 159.258C955.95 159.469 956.223 159.717 956.39 159.996L955.891 160.043C955.933 160.311 956.001 160.602 956.021 160.895C956.102 162.07 955.578 163.098 955.221 164.171C955.043 164.702 954.958 165.263 954.8 165.806C954.737 166.031 954.602 166.237 954.471 166.511C954.998 167.077 954.139 167.425 954.121 167.962C954.102 168.445 953.976 168.924 953.894 169.404C953.865 169.578 953.879 169.787 953.785 169.917C953.402 170.444 953.21 170.998 953.338 171.659C953.363 171.782 953.176 171.932 953.153 172.08C953.096 172.469 953.14 172.885 953.024 173.252C952.859 173.772 952.588 174.26 952.355 174.759C952.314 174.849 952.199 174.91 952.185 174.99C952.028 175.843 951.859 176.695 951.742 177.553C951.614 178.494 951.579 179.449 951.421 180.383C951.319 180.947 951.134 181.492 950.871 182.001C950.579 182.575 950.778 183.153 950.707 183.724C950.603 184.568 950.739 185.45 950.227 186.229C950.111 186.408 950.113 186.714 950.162 186.944C950.311 187.581 950.117 188.064 949.635 188.476C949.385 188.691 949.477 189.548 949.703 189.815C949.578 190.14 949.367 190.425 949.385 190.691C949.423 191.248 949.713 191.759 950.257 191.931C950.569 192.03 951.058 191.96 951.314 191.764C951.964 191.268 952.542 190.671 952.539 189.748C952.54 189.643 952.617 189.546 952.657 189.443C952.721 189.277 952.785 189.111 952.838 188.942C952.86 188.883 952.833 188.795 952.869 188.754C953.491 188.026 953.118 187.085 953.397 186.28C953.53 185.895 953.537 185.468 953.623 184.915C954.071 184.578 954.102 184.401 953.751 184.036C954.067 183.264 954.412 182.551 954.647 181.804C954.875 181.081 954.99 180.322 955.153 179.577C955.372 178.572 955.542 177.554 955.822 176.567C956.081 175.657 956.465 174.784 956.776 173.886C956.852 173.671 956.885 173.443 956.871 173.215C956.804 172.372 957.071 171.656 957.605 171.012C957.718 170.874 957.732 170.649 957.778 170.461C957.792 170.403 957.729 170.315 957.755 170.271C958.17 169.556 957.87 168.744 958.072 168.003C958.122 167.849 958.201 167.706 958.305 167.581C958.567 167.232 958.561 166.857 958.245 166.559C958.039 166.366 958.112 166.165 958.323 166.196C958.879 166.278 958.884 165.81 959 165.538C959.152 165.173 959.197 164.756 959.233 164.359C959.25 164.2 959.143 164.029 959.091 163.861C959.599 163.543 959.553 162.999 959.672 162.493C959.813 161.893 960.097 161.324 960.345 160.753C960.399 160.611 960.545 160.508 960.65 160.386C960.996 159.981 961.339 159.574 961.685 159.17C961.82 159.01 962.024 158.878 962.078 158.7C962.325 157.904 963.163 157.989 963.679 157.597C964.035 157.327 964.291 157.525 964.253 157.983C964.229 158.321 964.209 158.561 964.695 158.499C964.975 158.462 965.104 158.833 964.962 159.101C964.888 159.24 964.778 159.43 964.82 159.548C965.132 160.425 964.702 161.249 964.68 162.1C964.689 162.374 964.718 162.648 964.765 162.918L964.9 162.919C964.805 162.987 964.643 163.037 964.628 163.12C964.51 163.677 964.417 164.24 964.327 164.801C964.24 165.34 964.168 165.88 964.087 166.418C964.08 166.466 964.03 166.523 964.043 166.556C964.321 167.221 963.713 167.753 963.772 168.381C963.784 168.506 963.808 168.629 963.824 168.753C963.841 168.876 963.898 169.001 963.854 169.081C963.672 169.417 963.42 169.72 963.276 170.069C963.211 170.239 963.321 170.482 963.354 170.688C963.248 170.964 963.124 171.27 963.01 171.579C962.909 171.857 962.841 172.157 962.718 172.428C962.418 173.081 962.607 173.839 962.384 174.448C962.067 175.322 962.025 176.198 961.895 177.081C961.778 177.882 961.671 178.711 961.356 179.439C961.003 180.24 960.81 181.102 960.786 181.977C960.781 182.186 960.532 182.392 960.79 182.606C960.795 182.629 960.794 182.653 960.789 182.677C960.783 182.7 960.772 182.722 960.757 182.74C960.169 182.958 960.471 183.565 960.23 183.939C959.989 184.324 959.77 184.721 959.574 185.13C959.495 185.29 959.459 185.467 959.469 185.645C959.514 186.227 959.589 186.807 959.658 187.385C959.694 187.687 959.7 187.895 959.436 188.191C959.198 188.458 959.253 189.046 959.285 189.483C959.335 190.174 959.399 190.846 959.079 191.497C959.02 191.648 958.994 191.81 959.001 191.972C958.974 192.457 958.973 192.943 958.997 193.429C959.033 193.904 959.111 194.375 959.231 194.836C959.369 195.353 959.505 195.893 959.769 196.351C960.157 197.021 960.329 197.943 961.348 198.035C961.632 198.06 961.921 198.045 962.201 198.093C962.361 198.124 962.507 198.205 962.617 198.326C962.908 198.667 963.308 198.537 963.499 198.374C963.745 198.164 964.006 198.123 964.258 198C964.674 197.796 965.009 197.423 965.455 197.053C966.268 197.271 967.061 196.948 967.882 196.419C968.46 196.046 968.921 195.578 969.442 195.161C970.217 194.541 971.072 194.022 971.881 193.442C972.55 192.961 973.241 192.504 973.848 191.954C974.335 191.514 974.701 190.944 975.134 190.442C975.237 190.313 975.368 190.209 975.517 190.139C976.318 189.806 976.886 189.197 977.424 188.55C977.53 188.425 977.567 188.244 977.665 188.115C977.769 187.981 977.89 187.861 978.026 187.758C978.559 187.341 979.103 186.935 979.632 186.511C979.71 186.427 979.757 186.319 979.766 186.204C979.828 185.769 980.023 185.626 980.355 185.711C980.701 185.456 981.03 185.277 981.278 185.018C981.891 184.381 982.467 183.706 983.06 183.049C983.123 182.982 983.194 182.922 983.272 182.873C983.579 182.668 983.953 182.524 984.185 182.255C984.653 181.714 985.289 181.456 985.857 181.079C986.056 180.944 986.159 180.667 986.269 180.509C986.563 180.297 986.839 180.109 987.102 179.902C987.578 179.529 988.048 179.147 988.512 178.755C988.622 178.662 988.685 178.516 988.789 178.413C989.305 177.9 989.836 177.4 990.352 176.885C990.503 176.71 990.643 176.524 990.77 176.33C991.318 176.007 991.965 175.629 992.609 175.244C993.042 174.988 993.472 174.717 993.902 174.453C994.179 174.285 994.45 174.106 994.732 173.947C995.137 173.722 995.564 173.529 995.957 173.286C996.124 173.182 996.232 172.982 996.42 172.764C996.705 172.772 996.989 172.803 997.269 172.857C997.378 172.884 997.539 173.18 997.513 173.211C997.239 173.528 997.245 173.829 997.559 174.12C997.283 174.287 997.062 174.415 996.848 174.555C996.269 174.934 996.251 175.629 996.072 176.181C995.942 176.577 995.636 176.609 995.453 176.842C995.239 177.121 994.982 177.368 994.652 177.732C994.207 177.717 994.18 178.351 993.847 178.665C993.597 178.9 993.496 179.321 993.041 179.236C992.991 179.389 992.973 179.545 992.896 179.662C992.598 180.116 992.292 180.564 991.971 180.996C991.765 181.301 991.525 181.58 991.256 181.83C990.879 182.149 990.397 182.355 990.054 182.701C989.744 183.013 989.562 183.451 989.323 183.833C989.298 183.874 989.282 183.938 989.249 183.955C988.445 184.291 988.319 185.198 987.751 185.75C987.416 186.069 987.142 186.422 986.744 186.695C986.398 186.931 986.143 187.318 985.89 187.668C985.655 188.001 985.469 188.351 985.02 188.434C984.946 188.448 984.902 188.61 984.846 188.705C984.781 188.816 984.736 189.008 984.652 189.027C983.893 189.196 983.714 190.008 983.135 190.366C982.919 190.5 982.701 190.63 982.492 190.774C982.303 190.886 982.129 191.021 981.973 191.176C981.539 191.664 981.139 192.183 980.705 192.671C980.249 193.184 979.783 193.689 979.293 194.171C979.056 194.405 978.663 194.526 978.514 194.795C978.287 195.201 977.842 195.239 977.581 195.529C977.281 195.862 977.054 196.257 976.766 196.602C976.522 196.894 976.236 197.153 975.962 197.437L976.289 197.881C976.163 197.892 976.083 197.925 976.02 197.903C975.656 197.775 975.478 197.98 975.25 198.229C974.954 198.553 974.571 198.798 974.313 199.012C974.036 199.341 973.817 199.598 973.602 199.858C973.494 199.99 973.314 200.123 973.301 200.27C973.264 200.761 973.017 201.211 973.207 201.755C973.398 202.299 973.611 202.535 974.149 202.686C975.294 203.007 976.003 202.419 976.678 201.645C976.827 201.474 977.086 201.305 977.295 201.303C977.668 201.3 977.772 201.075 977.881 200.818C977.99 200.561 978.049 200.315 978.456 200.366C978.635 200.388 978.889 200.155 979.038 199.979C979.487 199.453 979.905 198.9 980.328 198.35C980.536 198.084 980.716 197.797 980.926 197.534C981.011 197.446 981.113 197.378 981.227 197.333C981.614 197.152 982.074 197.056 982.365 196.78C982.681 196.488 982.854 196.035 983.07 195.643C983.175 195.413 983.266 195.178 983.343 194.938L983.637 195.429C983.802 195.214 983.968 195.022 984.108 194.813C984.432 194.325 984.762 193.873 985.365 193.663C985.621 193.573 985.819 193.292 986.015 193.075C986.147 192.913 986.268 192.74 986.375 192.56C986.051 192.11 986.051 192.109 986.673 191.992C987.083 191.915 987.393 191.742 987.544 191.304C987.688 190.885 987.895 190.495 988.376 190.339C988.483 190.305 988.567 190.171 988.639 190.067C988.876 189.727 989.079 189.36 989.343 189.044C989.419 188.954 989.662 189.007 989.893 188.989C990.083 188.619 990.254 188.239 990.405 187.852C990.564 187.394 990.536 187.384 991.115 187.59C991.472 187.062 991.804 186.473 992.232 185.964C992.605 185.522 993.097 185.181 993.515 184.768C993.764 184.523 994.049 184.267 994.175 183.957C994.444 183.293 995.053 183.239 995.59 183.033C995.887 182.925 996.194 182.843 996.505 182.788C997.003 182.693 997.524 182.678 998.003 182.521C998.348 182.411 998.608 182.362 998.93 182.761C998.515 183.689 998.048 184.672 997.64 185.68C997.497 186.031 997.34 186.101 997.066 185.932C996.492 186.92 995.937 187.877 995.366 188.86L995.745 189.171C995.462 189.207 995.232 189.299 995.171 189.233C994.754 188.79 994.482 189.193 994.377 189.444C994.218 189.822 993.75 190.004 993.772 190.491C993.776 190.579 993.478 190.652 993.373 190.776C992.931 191.302 992.599 191.958 992.06 192.354C991.298 192.917 991.169 193.823 990.631 194.47C990.339 194.82 990.274 195.446 989.64 195.481C989.581 195.484 989.502 195.582 989.476 195.653C989.294 196.122 989.068 196.553 988.655 196.866C988.441 197.026 988.242 197.205 988.061 197.402C987.773 197.725 987.46 198.043 987.247 198.414C987.002 198.842 986.795 199.236 986.35 199.54C985.972 199.798 985.724 200.289 985.499 200.718C985.154 201.35 984.694 201.911 984.141 202.372C983.804 202.665 983.323 202.909 983.426 203.509C983.442 203.598 983.336 203.715 983.273 203.809C982.852 204.444 982.443 205.086 982.002 205.704C981.409 206.532 980.802 207.348 980.31 208.247C980.108 208.617 979.77 208.914 979.5 209.248C979.43 209.317 979.38 209.403 979.356 209.498C979.301 210.428 978.574 210.96 978.119 211.653C977.832 212.09 977.538 212.524 977.25 212.961C977.206 213.028 977.19 213.115 977.139 213.179C976.723 213.748 976.267 214.292 975.895 214.887C975.526 215.504 975.19 216.14 974.891 216.793C974.624 217.347 974.399 217.921 974.165 218.489C974.134 218.599 974.116 218.713 974.113 218.827C974.079 219.154 974.007 219.475 973.898 219.785C973.694 220.335 973.301 220.766 973.127 221.318C972.812 222.315 972.446 223.295 972.118 224.288C972.059 224.464 972.071 224.665 972.052 224.853C971.532 224.805 971.173 225.129 970.97 225.615C970.692 226.285 970.33 226.921 969.996 227.564C969.911 227.728 969.795 227.876 969.696 228.066C969.408 228.474 969.2 229.012 968.812 229.257C968.366 229.537 968.365 229.938 968.219 230.305C968.136 230.52 968.145 230.772 968.101 231.088C968.154 231.056 968.11 231.106 968.075 231.1C967.451 231 967.129 231.322 966.971 231.972C966.901 232.262 966.557 232.496 966.316 232.735C966.158 232.896 965.912 232.993 965.811 233.175C965.621 233.513 965.46 233.845 965.035 233.932C965.003 233.943 964.976 233.965 964.961 233.994C964.583 234.638 964.209 235.29 963.83 235.927C963.744 236.082 963.638 236.225 963.514 236.351C962.796 237.026 962.07 237.684 961.348 238.351C961.302 238.394 961.239 238.454 961.239 238.505C961.232 239.429 960.367 239.666 959.877 240.2C959.559 240.545 959.17 240.825 958.819 241.14C958.551 241.38 958.306 241.648 958.021 241.865C957.893 241.963 957.696 241.969 957.529 242.017L957.37 241.935Z" fill="white"/>
</g>
<g clip-path="url(#clip1_307_39835)">
<path d="M118.812 155.238L91.8561 126.137L65.6496 155.92L67.1673 116.278L27.5799 118.811L56.6807 91.8551L26.8984 65.6485L66.5398 67.1663L64.0072 27.5789L90.9631 56.6797L117.17 26.8974L115.652 66.5387L155.239 64.0062L126.138 90.962L155.921 117.169L116.279 115.651L118.812 155.238Z" fill="#F0E332" stroke="#231F20" stroke-width="4" stroke-linejoin="round"/>
</g>
<circle cx="820.5" cy="423.5" r="22.5" fill="white" stroke="#30352E" stroke-width="4"/>
<path d="M204.819 174.625L249.028 218.833" stroke="#231F20" stroke-width="3" stroke-miterlimit="10" stroke-linecap="round"/>
<path d="M246.85 176.809L206.999 216.654" stroke="#231F20" stroke-width="3" stroke-miterlimit="10" stroke-linecap="round"/>
<path d="M192 196.73H249.864" stroke="#231F20" stroke-width="3" stroke-miterlimit="10" stroke-linecap="round"/>
<path d="M226.927 159V239.78" stroke="#231F20" stroke-width="3" stroke-miterlimit="10" stroke-linecap="round"/>
<defs>
<clipPath id="clip0_307_39835">
<rect width="84.2361" height="106.915" fill="white" transform="translate(929.547 139.602) rotate(21.1333)"/>
</clipPath>
<clipPath id="clip1_307_39835">
<rect width="143" height="143" fill="white" transform="translate(48.1797) rotate(19.6895)"/>
</clipPath>
</defs>
</svg>
