<svg width="1440" height="836" viewBox="0 0 1440 836" fill="none" xmlns="http://www.w3.org/2000/svg">
<g clip-path="url(#clip0_185_19569)">
<path d="M408.2 175.962C384.518 278.214 434.581 473.148 824.298 434.873C1214.02 396.597 1292.11 731.206 1282.44 903.295" stroke="url(#paint0_linear_185_19569)" stroke-width="150" stroke-linecap="round" stroke-linejoin="round"/>
<path d="M249.652 730.36C97.5913 720.581 -130.186 805.484 175.186 1223.33C480.558 1641.17 84.455 1778.37 -151.768 1794.75" stroke="url(#paint1_linear_185_19569)" stroke-width="150" stroke-linecap="round" stroke-linejoin="round"/>
<path d="M264.757 1305C264.756 1140.07 -111.13 724.945 301.229 732.889C816.677 742.819 853.798 568.663 991.675 376.937C1129.55 185.212 1663.56 -298.303 1680 521.304" stroke="white" stroke-width="2" stroke-linecap="round" stroke-linejoin="round"/>
<path d="M436.726 1297C548.726 1092.5 7.72602 1000.5 137.727 730C300.931 390.412 750.272 640.137 902.726 475C1197.23 156 1907.23 629 1097.73 1330.5" stroke="white" stroke-width="2" stroke-linecap="round" stroke-linejoin="round"/>
<path d="M-1.17023 613.761C-0.155265 614.721 1.44605 614.677 2.40639 613.662C3.36672 612.647 3.32242 611.046 2.30746 610.085C1.29249 609.125 -0.308779 609.169 -1.26911 610.184C-2.22945 611.199 -2.18519 612.801 -1.17023 613.761Z" fill="#B4D31A"/>
<path d="M-0.538117 649.175C0.601208 650.253 2.39868 650.204 3.47669 649.064C4.55469 647.925 4.50501 646.128 3.36568 645.05C2.22636 643.972 0.428839 644.021 -0.649166 645.161C-1.72717 646.3 -1.67744 648.097 -0.538117 649.175Z" fill="#B4D31A"/>
<path d="M16.6111 630.585C17.626 631.546 19.2273 631.501 20.1876 630.486C21.148 629.471 21.1037 627.87 20.0887 626.91C19.0738 625.949 17.4725 625.994 16.5121 627.009C15.5518 628.024 15.5961 629.625 16.6111 630.585Z" fill="#B4D31A"/>
<path d="M0.08743 684.584C1.35513 685.783 3.35515 685.728 4.55462 684.46C5.75409 683.193 5.6988 681.193 4.4311 679.993C3.1634 678.794 1.16338 678.849 -0.0360909 680.117C-1.23556 681.384 -1.18027 683.384 0.08743 684.584Z" fill="#B4D31A"/>
<path d="M17.2441 666.001C18.3834 667.079 20.1809 667.029 21.2589 665.89C22.3369 664.75 22.2872 662.953 21.1479 661.875C20.0086 660.797 18.2111 660.846 17.1331 661.986C16.0551 663.125 16.1048 664.923 17.2441 666.001Z" fill="#B4D31A"/>
<path d="M34.4001 647.417C35.4151 648.378 37.0164 648.333 37.9767 647.318C38.937 646.303 38.8928 644.702 37.8778 643.742C36.8628 642.781 35.2615 642.826 34.3012 643.841C33.3409 644.856 33.3852 646.457 34.4001 647.417Z" fill="#B4D31A"/>
<path d="M0.719494 719.998C2.11156 721.315 4.30782 721.255 5.62496 719.863C6.9421 718.471 6.88134 716.274 5.48928 714.957C4.09722 713.64 1.901 713.701 0.583856 715.093C-0.733284 716.485 -0.672569 718.681 0.719494 719.998Z" fill="#B4D31A"/>
<path d="M17.8765 701.415C19.1442 702.614 21.1443 702.559 22.3437 701.291C23.5432 700.024 23.4879 698.024 22.2202 696.824C20.9525 695.625 18.9524 695.68 17.753 696.948C16.5535 698.215 16.6088 700.215 17.8765 701.415Z" fill="#B4D31A"/>
<path d="M35.0253 682.825C36.1646 683.903 37.9622 683.853 39.0402 682.714C40.1182 681.574 40.0684 679.777 38.9291 678.699C37.7898 677.621 35.9923 677.671 34.9143 678.81C33.8363 679.949 33.886 681.747 35.0253 682.825Z" fill="#B4D31A"/>
<path d="M52.1813 664.241C53.1963 665.202 54.7976 665.158 55.7579 664.143C56.7183 663.128 56.674 661.526 55.659 660.566C54.6441 659.606 53.0428 659.65 52.0824 660.665C51.1221 661.68 51.1664 663.281 52.1813 664.241Z" fill="#B4D31A"/>
<path d="M1.35254 755.414C2.86897 756.848 5.26143 756.782 6.69624 755.266C8.13105 753.749 8.06487 751.357 6.54844 749.922C5.03202 748.487 2.63959 748.554 1.20478 750.07C-0.230027 751.586 -0.163886 753.979 1.35254 755.414Z" fill="#B4D31A"/>
<path d="M18.5017 736.823C19.8938 738.141 22.09 738.08 23.4072 736.688C24.7243 735.296 24.6636 733.099 23.2715 731.782C21.8794 730.465 19.6832 730.526 18.3661 731.918C17.0489 733.31 17.1097 735.506 18.5017 736.823Z" fill="#B4D31A"/>
<path d="M35.6587 718.24C36.9264 719.44 38.9265 719.384 40.126 718.117C41.3254 716.849 41.2701 714.849 40.0024 713.649C38.7347 712.45 36.7347 712.505 35.5352 713.773C34.3357 715.041 34.391 717.041 35.6587 718.24Z" fill="#B4D31A"/>
<path d="M52.8144 699.657C53.9537 700.735 55.7512 700.685 56.8292 699.546C57.9072 698.407 57.8575 696.609 56.7182 695.531C55.5789 694.453 53.7814 694.503 52.7034 695.642C51.6254 696.781 51.6751 698.579 52.8144 699.657Z" fill="#B4D31A"/>
<path d="M69.9636 681.067C70.9786 682.027 72.5798 681.983 73.5402 680.968C74.5005 679.953 74.4563 678.352 73.4413 677.391C72.4263 676.431 70.825 676.475 69.8647 677.49C68.9043 678.505 68.9486 680.106 69.9636 681.067Z" fill="#B4D31A"/>
<path d="M1.98562 790.814C3.62641 792.367 6.21504 792.295 7.76752 790.654C9.32 789.014 9.24844 786.425 7.60765 784.873C5.96686 783.32 3.37818 783.392 1.8257 785.032C0.273225 786.673 0.344836 789.262 1.98562 790.814Z" fill="#B4D31A"/>
<path d="M19.1348 772.239C20.6512 773.674 23.0437 773.607 24.4785 772.091C25.9133 770.575 25.8471 768.182 24.3307 766.747C22.8143 765.313 20.4218 765.379 18.987 766.895C17.5522 768.412 17.6184 770.804 19.1348 772.239Z" fill="#B4D31A"/>
<path d="M36.2918 753.656C37.6839 754.973 39.8801 754.912 41.1972 753.52C42.5144 752.128 42.4537 749.932 41.0616 748.614C39.6695 747.297 37.4733 747.358 36.1561 748.75C34.839 750.142 34.8997 752.338 36.2918 753.656Z" fill="#B4D31A"/>
<path d="M53.441 735.065C54.7087 736.265 56.7087 736.209 57.9082 734.942C59.1076 733.674 59.0524 731.674 57.7847 730.475C56.517 729.275 54.5169 729.33 53.3174 730.598C52.118 731.866 52.1733 733.866 53.441 735.065Z" fill="#B4D31A"/>
<path d="M70.5966 716.482C71.736 717.56 73.5335 717.51 74.6115 716.371C75.6895 715.232 75.6398 713.434 74.5005 712.356C73.3611 711.278 71.5636 711.328 70.4856 712.467C69.4076 713.607 69.4573 715.404 70.5966 716.482Z" fill="#B4D31A"/>
<path d="M87.7536 697.899C88.7686 698.859 90.3699 698.815 91.3302 697.8C92.2906 696.785 92.2463 695.184 91.2313 694.223C90.2164 693.263 88.615 693.307 87.6547 694.322C86.6944 695.337 86.7387 696.938 87.7536 697.899Z" fill="#B4D31A"/>
<path d="M2.61121 826.237C4.38037 827.91 7.17155 827.833 8.84549 826.064C10.5194 824.295 10.4423 821.504 8.67311 819.83C6.90394 818.156 4.11272 818.233 2.43878 820.002C0.764835 821.771 0.842048 824.563 2.61121 826.237Z" fill="#B4D31A"/>
<path d="M19.7747 807.646C21.4155 809.199 24.0041 809.127 25.5566 807.486C27.1091 805.846 27.0375 803.257 25.3967 801.705C23.7559 800.152 21.1672 800.224 19.6148 801.864C18.0623 803.505 18.1339 806.094 19.7747 807.646Z" fill="#B4D31A"/>
<path d="M36.9161 789.063C38.4325 790.498 40.825 790.432 42.2598 788.915C43.6946 787.399 43.6284 785.006 42.112 783.572C40.5955 782.137 38.2031 782.203 36.7683 783.719C35.3334 785.236 35.3996 787.628 36.9161 789.063Z" fill="#B4D31A"/>
<path d="M54.0731 770.48C55.4651 771.797 57.6613 771.736 58.9785 770.344C60.2956 768.952 60.2349 766.756 58.8428 765.439C57.4508 764.121 55.2545 764.182 53.9374 765.574C52.6202 766.966 52.681 769.163 54.0731 770.48Z" fill="#B4D31A"/>
<path d="M71.2291 751.896C72.4968 753.096 74.4968 753.041 75.6963 751.773C76.8957 750.505 76.8404 748.505 75.5727 747.306C74.305 746.106 72.305 746.161 71.1055 747.429C69.906 748.697 69.9614 750.697 71.2291 751.896Z" fill="#B4D31A"/>
<path d="M88.3857 733.314C89.525 734.392 91.3225 734.342 92.4005 733.203C93.4785 732.064 93.4288 730.266 92.2895 729.188C91.1502 728.11 89.3527 728.16 88.2747 729.299C87.1967 730.439 87.2464 732.236 88.3857 733.314Z" fill="#B4D31A"/>
<path d="M105.535 714.723C106.55 715.683 108.151 715.639 109.112 714.624C110.072 713.609 110.028 712.008 109.013 711.047C107.998 710.087 106.396 710.131 105.436 711.146C104.476 712.161 104.52 713.763 105.535 714.723Z" fill="#B4D31A"/>
<path d="M20.3934 843.062C22.1626 844.736 24.9538 844.658 26.6277 842.889C28.3017 841.12 28.2245 838.329 26.4553 836.655C24.6861 834.981 21.895 835.058 20.221 836.827C18.5471 838.597 18.6242 841.388 20.3934 843.062Z" fill="#B4D31A"/>
<path d="M37.5559 824.471C39.1967 826.023 41.7854 825.951 43.3378 824.311C44.8903 822.67 44.8187 820.081 43.1779 818.529C41.5371 816.976 38.9485 817.048 37.396 818.689C35.8435 820.329 35.9151 822.918 37.5559 824.471Z" fill="#B4D31A"/>
<path d="M54.7061 805.895C56.2225 807.33 58.615 807.264 60.0498 805.747C61.4846 804.231 61.4184 801.838 59.902 800.404C58.3855 798.969 55.9931 799.035 54.5583 800.551C53.1235 802.068 53.1896 804.46 54.7061 805.895Z" fill="#B4D31A"/>
<path d="M71.8552 787.305C73.2473 788.622 75.4436 788.561 76.7607 787.169C78.0778 785.777 78.0171 783.581 76.625 782.264C75.233 780.947 73.0367 781.007 71.7196 782.399C70.4025 783.792 70.4632 785.988 71.8552 787.305Z" fill="#B4D31A"/>
<path d="M89.0113 768.722C90.279 769.921 92.279 769.866 93.4785 768.598C94.678 767.33 94.6226 765.33 93.3549 764.131C92.0872 762.931 90.0872 762.987 88.8877 764.254C87.6883 765.522 87.7436 767.522 89.0113 768.722Z" fill="#B4D31A"/>
<path d="M106.168 750.138C107.307 751.216 109.105 751.167 110.183 750.027C111.261 748.888 111.211 747.09 110.072 746.012C108.932 744.934 107.135 744.984 106.057 746.123C104.979 747.263 105.029 749.06 106.168 750.138Z" fill="#B4D31A"/>
<path d="M123.324 731.555C124.339 732.515 125.94 732.471 126.901 731.456C127.861 730.441 127.817 728.84 126.802 727.879C125.787 726.919 124.185 726.963 123.225 727.978C122.265 728.993 122.309 730.595 123.324 731.555Z" fill="#B4D31A"/>
<path d="M55.3382 841.296C56.979 842.848 59.5676 842.777 61.1201 841.136C62.6725 839.495 62.601 836.906 60.9602 835.354C59.3194 833.802 56.7307 833.873 55.1782 835.514C53.6258 837.155 53.6974 839.743 55.3382 841.296Z" fill="#B4D31A"/>
<path d="M72.4883 822.72C74.0047 824.155 76.3972 824.089 77.832 822.572C79.2668 821.056 79.2006 818.664 77.6842 817.229C76.1678 815.794 73.7753 815.86 72.3405 817.377C70.9057 818.893 70.9719 821.285 72.4883 822.72Z" fill="#B4D31A"/>
<path d="M89.6443 804.137C91.0364 805.454 93.2326 805.393 94.5498 804.001C95.8669 802.609 95.8061 800.413 94.4141 799.096C93.022 797.779 90.8258 797.839 89.5087 799.231C88.1915 800.624 88.2522 802.82 89.6443 804.137Z" fill="#B4D31A"/>
<path d="M106.8 785.554C108.068 786.753 110.068 786.698 111.268 785.43C112.467 784.162 112.412 782.162 111.144 780.963C109.876 779.763 107.876 779.819 106.677 781.086C105.477 782.354 105.533 784.354 106.8 785.554Z" fill="#B4D31A"/>
<path d="M123.95 766.964C125.089 768.042 126.887 767.992 127.965 766.852C129.043 765.713 128.993 763.916 127.854 762.838C126.715 761.76 124.917 761.809 123.839 762.949C122.761 764.088 122.811 765.886 123.95 766.964Z" fill="#B4D31A"/>
<path d="M141.106 748.38C142.121 749.34 143.722 749.296 144.683 748.281C145.643 747.266 145.599 745.665 144.584 744.705C143.569 743.744 141.968 743.789 141.007 744.804C140.047 745.819 140.091 747.42 141.106 748.38Z" fill="#B4D31A"/>
<path d="M90.2764 839.551C91.7928 840.986 94.1853 840.92 95.6201 839.404C97.0549 837.887 96.9887 835.495 95.4723 834.06C93.9559 832.625 91.5634 832.691 90.1286 834.208C88.6938 835.724 88.76 838.117 90.2764 839.551Z" fill="#B4D31A"/>
<path d="M107.426 820.961C108.818 822.278 111.014 822.218 112.331 820.825C113.648 819.433 113.587 817.237 112.195 815.92C110.803 814.603 108.607 814.664 107.29 816.056C105.973 817.448 106.034 819.644 107.426 820.961Z" fill="#B4D31A"/>
<path d="M124.583 802.378C125.85 803.577 127.85 803.522 129.05 802.254C130.249 800.987 130.194 798.987 128.926 797.787C127.659 796.588 125.658 796.643 124.459 797.911C123.26 799.178 123.315 801.178 124.583 802.378Z" fill="#B4D31A"/>
<path d="M141.738 783.795C142.878 784.873 144.675 784.823 145.753 783.684C146.831 782.544 146.781 780.747 145.642 779.669C144.503 778.591 142.705 778.64 141.627 779.78C140.549 780.919 140.599 782.717 141.738 783.795Z" fill="#B4D31A"/>
<path d="M158.887 765.204C159.902 766.165 161.504 766.12 162.464 765.105C163.424 764.091 163.38 762.489 162.365 761.529C161.35 760.569 159.749 760.613 158.789 761.628C157.828 762.643 157.872 764.244 158.887 765.204Z" fill="#B4D31A"/>
<path d="M125.216 837.793C126.608 839.11 128.804 839.05 130.121 837.658C131.438 836.265 131.377 834.069 129.985 832.752C128.593 831.435 126.397 831.496 125.08 832.888C123.763 834.28 123.824 836.476 125.216 837.793Z" fill="#B4D31A"/>
<path d="M142.365 819.203C143.632 820.402 145.632 820.347 146.832 819.079C148.031 817.812 147.976 815.812 146.708 814.612C145.441 813.413 143.441 813.468 142.241 814.736C141.042 816.004 141.097 818.004 142.365 819.203Z" fill="#B4D31A"/>
<path d="M159.52 800.62C160.66 801.698 162.457 801.648 163.535 800.509C164.613 799.369 164.564 797.572 163.424 796.494C162.285 795.416 160.487 795.466 159.409 796.605C158.331 797.744 158.381 799.542 159.52 800.62Z" fill="#B4D31A"/>
<path d="M176.677 782.036C177.692 782.997 179.294 782.952 180.254 781.938C181.214 780.923 181.17 779.321 180.155 778.361C179.14 777.401 177.539 777.445 176.579 778.46C175.618 779.475 175.663 781.076 176.677 782.036Z" fill="#B4D31A"/>
<path d="M160.153 836.034C161.421 837.234 163.421 837.178 164.62 835.911C165.82 834.643 165.764 832.643 164.497 831.443C163.229 830.244 161.229 830.299 160.029 831.567C158.83 832.835 158.885 834.835 160.153 836.034Z" fill="#B4D31A"/>
<path d="M177.309 817.452C178.449 818.53 180.246 818.48 181.324 817.341C182.402 816.201 182.353 814.404 181.213 813.326C180.074 812.248 178.276 812.298 177.198 813.437C176.12 814.576 176.17 816.374 177.309 817.452Z" fill="#B4D31A"/>
<path d="M194.459 798.861C195.474 799.821 197.075 799.777 198.035 798.762C198.996 797.747 198.951 796.145 197.936 795.185C196.921 794.225 195.32 794.269 194.36 795.284C193.399 796.299 193.444 797.9 194.459 798.861Z" fill="#B4D31A"/>
<path d="M195.092 834.276C196.231 835.354 198.029 835.304 199.107 834.165C200.185 833.026 200.135 831.228 198.996 830.15C197.856 829.072 196.059 829.122 194.981 830.261C193.903 831.4 193.952 833.198 195.092 834.276Z" fill="#B4D31A"/>
<path d="M212.248 815.693C213.263 816.653 214.864 816.609 215.824 815.594C216.785 814.579 216.74 812.977 215.725 812.017C214.71 811.057 213.109 811.101 212.149 812.116C211.189 813.131 211.233 814.732 212.248 815.693Z" fill="#B4D31A"/>
<path d="M230.03 832.518C231.045 833.478 232.646 833.434 233.607 832.419C234.567 831.404 234.523 829.803 233.508 828.842C232.493 827.882 230.891 827.926 229.931 828.941C228.971 829.956 229.015 831.558 230.03 832.518Z" fill="#B4D31A"/>
</g>
<defs>
<linearGradient id="paint0_linear_185_19569" x1="411.44" y1="172.226" x2="1297.54" y2="913.465" gradientUnits="userSpaceOnUse">
<stop stop-color="#F0E332"/>
<stop offset="1" stop-color="#CEEB3E"/>
</linearGradient>
<linearGradient id="paint1_linear_185_19569" x1="256.757" y1="733.299" x2="-172.718" y2="1805.87" gradientUnits="userSpaceOnUse">
<stop stop-color="#F0E332"/>
<stop offset="1" stop-color="#CEEB3E"/>
</linearGradient>
<clipPath id="clip0_185_19569">
<rect width="1920" height="1256" fill="white" transform="translate(-240)"/>
</clipPath>
</defs>
</svg>
