<svg width="30" height="30" viewBox="0 0 30 30" fill="none" xmlns="http://www.w3.org/2000/svg">
<path fill-rule="evenodd" clip-rule="evenodd" d="M25.9765 4.02347C26.0638 4.11056 26.133 4.21401 26.1803 4.32791C26.2276 4.44181 26.2519 4.56391 26.2519 4.68722C26.2519 4.81054 26.2276 4.93264 26.1803 5.04654C26.133 5.16043 26.0638 5.26389 25.9765 5.35097L5.35146 25.976C5.17542 26.152 4.93666 26.2509 4.68771 26.2509C4.43875 26.2509 4.19999 26.152 4.02396 25.976C3.84792 25.7999 3.74902 25.5612 3.74902 25.3122C3.74902 25.0633 3.84792 24.8245 4.02396 24.6485L24.649 4.02347C24.736 3.93617 24.8395 3.8669 24.9534 3.81964C25.0673 3.77237 25.1894 3.74805 25.3127 3.74805C25.436 3.74805 25.5581 3.77237 25.672 3.81964C25.7859 3.8669 25.8894 3.93617 25.9765 4.02347Z" fill="#30352E"/>
<path fill-rule="evenodd" clip-rule="evenodd" d="M4.02347 4.02347C3.93617 4.11056 3.8669 4.21401 3.81964 4.32791C3.77237 4.44181 3.74805 4.56391 3.74805 4.68722C3.74805 4.81054 3.77237 4.93264 3.81964 5.04654C3.8669 5.16043 3.93617 5.26389 4.02347 5.35097L24.6485 25.976C24.8245 26.152 25.0633 26.2509 25.3122 26.2509C25.5612 26.2509 25.7999 26.152 25.976 25.976C26.152 25.7999 26.2509 25.5612 26.2509 25.3122C26.2509 25.0633 26.152 24.8245 25.976 24.6485L5.35097 4.02347C5.26389 3.93617 5.16043 3.8669 5.04654 3.81964C4.93264 3.77237 4.81054 3.74805 4.68722 3.74805C4.56391 3.74805 4.44181 3.77237 4.32791 3.81964C4.21401 3.8669 4.11056 3.93617 4.02347 4.02347Z" fill="#30352E"/>
</svg>
