<svg width="508" height="173" viewBox="0 0 508 173" fill="none" xmlns="http://www.w3.org/2000/svg">
<mask id="path-1-inside-1_185_8811" fill="white">
<path fill-rule="evenodd" clip-rule="evenodd" d="M508 3C508 1.34315 506.657 0 505 0H3C1.34315 0 0 1.34315 0 3V151C0 152.657 1.34314 154 2.99999 154H277.348C278.574 154 279.677 154.746 280.133 155.884L286.215 171.055C287.222 173.566 290.778 173.566 291.785 171.055L297.867 155.884C298.323 154.746 299.426 154 300.652 154H505C506.657 154 508 152.657 508 151V3Z"/>
</mask>
<path fill-rule="evenodd" clip-rule="evenodd" d="M508 3C508 1.34315 506.657 0 505 0H3C1.34315 0 0 1.34315 0 3V151C0 152.657 1.34314 154 2.99999 154H277.348C278.574 154 279.677 154.746 280.133 155.884L286.215 171.055C287.222 173.566 290.778 173.566 291.785 171.055L297.867 155.884C298.323 154.746 299.426 154 300.652 154H505C506.657 154 508 152.657 508 151V3Z" fill="#007BCC"/>
<path d="M297.867 155.884L294.155 154.395L297.867 155.884ZM286.215 171.055L282.503 172.544L286.215 171.055ZM291.785 171.055L295.497 172.544L291.785 171.055ZM280.133 155.884L283.845 154.395L280.133 155.884ZM3 4H505V-4H3V4ZM4 151V3H-4V151H4ZM277.348 150H2.99999V158H277.348V150ZM289.928 169.566L283.845 154.395L276.42 157.372L282.503 172.544L289.928 169.566ZM294.155 154.395L288.072 169.566L295.497 172.544L301.58 157.372L294.155 154.395ZM505 150H300.652V158H505V150ZM504 3V151H512V3H504ZM505 158C508.866 158 512 154.866 512 151H504C504 150.448 504.448 150 505 150V158ZM301.58 157.372C301.428 157.751 301.06 158 300.652 158V150C297.792 150 295.219 151.74 294.155 154.395L301.58 157.372ZM282.503 172.544C284.852 178.404 293.148 178.404 295.497 172.544L288.072 169.566C288.407 168.729 289.593 168.729 289.928 169.566L282.503 172.544ZM277.348 158C276.94 158 276.572 157.751 276.42 157.372L283.845 154.395C282.781 151.74 280.208 150 277.348 150V158ZM-4 151C-4 154.866 -0.866012 158 2.99999 158V150C3.55229 150 4 150.448 4 151H-4ZM505 4C504.448 4 504 3.55228 504 3H512C512 -0.865991 508.866 -4 505 -4V4ZM3 -4C-0.865995 -4 -4 -0.86599 -4 3H4C4 3.55228 3.55229 4 3 4V-4Z" fill="#30352E" mask="url(#path-1-inside-1_185_8811)"/>
</svg>
