<svg width="313" height="97" viewBox="0 0 313 97" fill="none" xmlns="http://www.w3.org/2000/svg">
<mask id="path-1-inside-1_180_3076" fill="white">
<path fill-rule="evenodd" clip-rule="evenodd" d="M102 87.7471C93.9993 93.5669 84.1506 97 73.5 97C46.7142 97 25 75.2858 25 48.5C25 21.7142 46.7142 0 73.5 0C84.1506 0 93.9993 3.43305 102 9.25292C110.001 3.43305 119.849 0 130.5 0C141.151 0 150.999 3.43305 159 9.25292C167.001 3.43305 176.849 0 187.5 0C198.151 0 207.999 3.43305 216 9.25292C224.001 3.43305 233.849 0 244.5 0C271.286 0 293 21.7142 293 48.5C293 75.2858 271.286 97 244.5 97C233.849 97 224.001 93.5669 216 87.7471C207.999 93.5669 198.151 97 187.5 97C176.849 97 167.001 93.5669 159 87.7471C150.999 93.5669 141.151 97 130.5 97C119.849 97 110.001 93.5669 102 87.7471Z"/>
</mask>
<path fill-rule="evenodd" clip-rule="evenodd" d="M102 87.7471C93.9993 93.5669 84.1506 97 73.5 97C46.7142 97 25 75.2858 25 48.5C25 21.7142 46.7142 0 73.5 0C84.1506 0 93.9993 3.43305 102 9.25292C110.001 3.43305 119.849 0 130.5 0C141.151 0 150.999 3.43305 159 9.25292C167.001 3.43305 176.849 0 187.5 0C198.151 0 207.999 3.43305 216 9.25292C224.001 3.43305 233.849 0 244.5 0C271.286 0 293 21.7142 293 48.5C293 75.2858 271.286 97 244.5 97C233.849 97 224.001 93.5669 216 87.7471C207.999 93.5669 198.151 97 187.5 97C176.849 97 167.001 93.5669 159 87.7471C150.999 93.5669 141.151 97 130.5 97C119.849 97 110.001 93.5669 102 87.7471Z" fill="#30352E"/>
<path d="M102 87.7471L104.353 84.5124L102 82.8007L99.647 84.5124L102 87.7471ZM102 9.25292L99.647 12.4876L102 14.1993L104.353 12.4876L102 9.25292ZM159 9.25292L156.647 12.4876L159 14.1993L161.353 12.4876L159 9.25292ZM216 9.25292L213.647 12.4876L216 14.1993L218.353 12.4876L216 9.25292ZM216 87.7471L218.353 84.5124L216 82.8007L213.647 84.5124L216 87.7471ZM159 87.7471L161.353 84.5124L159 82.8007L156.647 84.5124L159 87.7471ZM73.5 101C85.0241 101 95.6916 97.2823 104.353 90.9818L99.647 84.5124C92.3071 89.8516 83.2771 93 73.5 93V101ZM21 48.5C21 77.4949 44.5051 101 73.5 101V93C48.9233 93 29 73.0767 29 48.5H21ZM73.5 -4C44.5051 -4 21 19.5051 21 48.5H29C29 23.9233 48.9233 4 73.5 4V-4ZM104.353 6.01821C95.6916 -0.282322 85.0241 -4 73.5 -4V4C83.2771 4 92.3071 7.14842 99.647 12.4876L104.353 6.01821ZM130.5 -4C118.976 -4 108.308 -0.282322 99.647 6.01821L104.353 12.4876C111.693 7.14842 120.723 4 130.5 4V-4ZM161.353 6.01821C152.692 -0.282322 142.024 -4 130.5 -4V4C140.277 4 149.307 7.14842 156.647 12.4876L161.353 6.01821ZM187.5 -4C175.976 -4 165.308 -0.282322 156.647 6.01821L161.353 12.4876C168.693 7.14842 177.723 4 187.5 4V-4ZM218.353 6.01821C209.692 -0.282322 199.024 -4 187.5 -4V4C197.277 4 206.307 7.14842 213.647 12.4876L218.353 6.01821ZM218.353 12.4876C225.693 7.14842 234.723 4 244.5 4V-4C232.976 -4 222.308 -0.282322 213.647 6.01821L218.353 12.4876ZM244.5 4C269.077 4 289 23.9233 289 48.5H297C297 19.5051 273.495 -4 244.5 -4V4ZM289 48.5C289 73.0767 269.077 93 244.5 93V101C273.495 101 297 77.4949 297 48.5H289ZM244.5 93C234.723 93 225.693 89.8516 218.353 84.5124L213.647 90.9818C222.308 97.2823 232.976 101 244.5 101V93ZM187.5 101C199.024 101 209.692 97.2823 218.353 90.9818L213.647 84.5124C206.307 89.8516 197.277 93 187.5 93V101ZM156.647 90.9818C165.308 97.2823 175.976 101 187.5 101V93C177.723 93 168.693 89.8516 161.353 84.5124L156.647 90.9818ZM130.5 101C142.024 101 152.692 97.2823 161.353 90.9818L156.647 84.5124C149.307 89.8516 140.277 93 130.5 93V101ZM99.647 90.9818C108.308 97.2823 118.976 101 130.5 101V93C120.723 93 111.693 89.8516 104.353 84.5124L99.647 90.9818Z" fill="#30352E" mask="url(#path-1-inside-1_180_3076)"/>
<path d="M66.6 32.52V67.36H70.08V35.84H86.68V67.04H90.28V32.52H66.6ZM71.48 41.24V44.08H85.52V41.24H71.48ZM68.44 61.64V65H88.52V61.64H68.44ZM76.88 36.92V49.68H79.88V36.92H76.88ZM75.68 50.8H81.24V56.12H75.68V50.8ZM72.84 48.08V58.84H84.2V48.08H72.84ZM62.12 30.4C60.2 36.32 57 42.24 53.52 46.04C54.16 47 55.12 49.16 55.44 50.08C59.52 45.4 63.28 38.32 65.56 31.44L62.12 30.4ZM58.8 40.72V67.44H62.4V37.2L62.36 37.16L58.8 40.72ZM126.64 30.36C126.48 36.8 126.96 55.68 110.44 64.24C111.64 65.08 112.88 66.28 113.56 67.28C130.44 57.84 130.72 37.96 130.92 30.36H126.64ZM130.52 35.24L126.88 35.64C127.44 39.36 128.96 59.48 145.04 67.08C145.6 66 146.68 64.72 147.8 63.84C132.32 56.92 130.84 38.28 130.52 35.24ZM166.92 38.76V42.28H179.24V38.76H166.92ZM171.96 30.24V67.36H175.4V30.24H171.96ZM171.92 41.04C170.96 46.44 168.56 53.12 166.04 56.68C166.6 57.56 167.44 59 167.84 60C170.6 55.96 173 48.08 174.12 41.76L171.92 41.04ZM175.16 44.6L173.64 46.08C174.64 47.76 177.2 52.48 178.04 54.6L180 51.88C179.28 50.76 176.04 45.68 175.16 44.6ZM183.16 57.72V60.4H199.64V57.72H183.16ZM182.92 63.12V65.96H200V63.12H182.92ZM189.44 30.24V38.36H193.04V30.24H189.44ZM189.56 53.8V64.64H192.84V53.8H189.56ZM179.76 36.6V43.36H183.16V39.6H199.56V43.36H203.08V36.6H179.76ZM180.76 52.2V67.36H184.2V55H198.4V67.32H202.04V52.2H180.76ZM186.76 44.6H196.16V47.68H186.76V44.6ZM183.48 41.96V50.32H199.68V41.96H183.48ZM181.36 31.76C182.36 33.36 183.36 35.48 183.72 36.88L187 35.72C186.6 34.32 185.48 32.24 184.44 30.72L181.36 31.76ZM197.92 30.56C197.36 32.16 196.28 34.4 195.44 35.84L198.32 36.84C199.24 35.56 200.36 33.6 201.44 31.68L197.92 30.56ZM238.96 51.64V67.36H242.76V51.64H238.96ZM224.04 33.12V39.04H227.56V36.28H254.44V39.04H258.08V33.12H224.04ZM223.36 40.4V43.4H258.68V40.4H223.36ZM222.96 54.72V57.92H259.08V54.72H222.96ZM248.92 37.72C246.12 46.6 238.72 49.24 223.2 49.8C223.76 50.6 224.24 51.84 224.52 52.96C241.04 51.96 249.16 49 252.64 38.56L248.92 37.72ZM228.24 47.08C239 48.72 249 51.08 254.76 53.32L258.44 50.84C252 48.68 241.44 46.24 231.28 44.76L228.24 47.08ZM237.8 31.08C238.56 32.36 239.52 34.16 239.96 35.28L244.04 34.2C243.56 33.12 242.52 31.4 241.68 30.2L237.8 31.08ZM228.24 47.08H232.2C234.88 44.8 238.76 40.88 241.2 37.4L237.6 36.28C235.36 39.88 231.32 44.28 228.24 47.08ZM232.48 58.36C230.44 60.6 226.76 62.6 223.2 63.84C224.12 64.44 225.64 65.68 226.36 66.4C229.8 64.88 233.84 62.36 236.24 59.64L232.48 58.36ZM245.36 60.24C248.96 62 253.52 64.76 255.68 66.72L258.56 64.04C256.2 62.12 251.56 59.48 248.04 57.84L245.36 60.24Z" fill="white"/>
<path d="M18.3761 67.2942C11.0236 57.7835 10.7998 48.0056 13.0252 40.2247C13.6646 37.9889 16.6102 39.227 16.5284 41.551C15.7594 63.4162 31.2931 84.0029 18.3761 67.2942Z" fill="#30352E"/>
<path d="M300.542 24.7633C303.689 28.7449 305.009 33.2612 305.25 37.6667C305.382 40.0763 302.227 39.442 301.827 37.0591C299.61 23.8468 293.181 15.4524 300.542 24.7633Z" fill="#30352E"/>
<path d="M20.0057 83.0472C8.99802 81.2009 3.84902 76.4909 1.77675 71.7918C0.906826 69.8191 3.82168 69.2487 5.28009 70.8365C15.6336 82.1088 39.5892 86.3318 20.0057 83.0472Z" fill="#30352E"/>
<path d="M299.024 12.7991C304.097 12.6001 307.274 14.0469 309.191 16.1246C310.52 17.5644 307.947 19.1308 306.364 18.0339C298.996 12.9287 287.848 13.2376 299.024 12.7991Z" fill="#30352E"/>
</svg>
