<svg width="168" height="49" viewBox="0 0 168 49" fill="none" xmlns="http://www.w3.org/2000/svg">
<path d="M5.66948 6.27033C57.7412 -2.09011 110.309 -2.09011 162.381 6.27033C163.421 6.43875 163.946 7.71242 163.298 8.49663C160.227 13.9808 157.201 19.493 154.221 25.0333C154.13 25.1431 154.059 25.2816 154.012 25.4376C153.966 25.5936 153.945 25.7629 153.953 25.932C153.96 26.1012 153.996 26.2655 154.056 26.4119C154.116 26.5583 154.199 26.6828 154.299 26.7754C158.853 33.3964 163.31 40.084 167.669 46.8384C168.442 47.8015 167.765 49.1805 166.629 48.9805C111.753 39.27 56.2419 39.27 1.36573 48.9805C0.288866 49.1699 -0.399437 47.9278 0.255561 46.9436C4.81712 40.0911 9.48106 33.3034 14.2474 26.5807C14.3982 26.4031 14.4934 26.1477 14.5121 25.8705C14.5308 25.5934 14.4716 25.3169 14.3473 25.1017C11.1648 19.4877 7.93299 13.8983 4.65183 8.33346C4.16705 7.53873 4.71473 6.42296 5.66948 6.27033Z" fill="#C4C4C4"/>
</svg>
