<svg width="168" height="49" viewBox="0 0 168 49" fill="none" xmlns="http://www.w3.org/2000/svg">
<path d="M5.82734 7.25779L5.828 7.25768C57.7943 -1.08583 110.255 -1.08589 162.221 7.2575C162.358 7.27974 162.484 7.37781 162.548 7.53377C162.612 7.68909 162.578 7.79906 162.527 7.85988L162.47 7.92936L162.426 8.00798C159.365 13.4735 156.349 18.9669 153.379 24.4882C153.229 24.6926 153.123 24.9207 153.054 25.1517C152.974 25.4191 152.942 25.7004 152.954 25.9766C152.966 26.2526 153.024 26.531 153.13 26.7913C153.221 27.0124 153.351 27.2284 153.525 27.4152C158.056 34.0042 162.491 40.6594 166.829 47.3806L166.857 47.4241L166.889 47.4645C167.027 47.6361 167.016 47.8057 166.966 47.9073C166.941 47.9587 166.912 47.9814 166.897 47.9895L166.897 47.9895C166.89 47.9937 166.866 48.0067 166.803 47.9958C111.812 38.265 56.1836 38.2649 1.19244 47.9956C1.13315 48.006 1.10932 47.9944 1.10107 47.9902C1.08715 47.983 1.06157 47.9643 1.03797 47.9213C0.992098 47.8376 0.966853 47.6799 1.08799 47.4978C5.63754 40.6632 10.2891 33.8933 15.0426 27.1881C15.335 26.8242 15.4806 26.3704 15.5098 25.938C15.5402 25.4884 15.4489 25.0117 15.2155 24.6056C12.0308 18.9877 8.7967 13.3943 5.51324 7.82556L5.50943 7.81911L5.50553 7.81271C5.46927 7.75326 5.44829 7.64438 5.51797 7.50287C5.58745 7.36176 5.70679 7.27706 5.82734 7.25779Z" fill="#FFEE55" stroke="#30352E" stroke-width="2"/>
</svg>
